<svg width="19" height="15" viewBox="0 0 19 15" fill="none" xmlns="http://www.w3.org/2000/svg">
<g id="Group 1428">
<path id="Vector" d="M12.8078 9.72174C11.8136 9.72174 10.9463 10.2746 10.4964 11.0891C10.2425 11.0176 9.90394 10.9569 9.4856 10.9569C9.08082 10.9569 8.75106 11.0138 8.50012 11.0821C8.04923 10.2716 7.18419 9.72174 6.1927 9.72174C4.7376 9.72174 3.55371 10.9056 3.55371 12.3609C3.55371 13.8161 4.7376 14.9999 6.1927 14.9999C7.64793 14.9999 8.83169 13.8161 8.83169 12.3609C8.83169 12.2755 8.82735 12.1912 8.81939 12.1081C8.98357 12.0665 9.20657 12.0301 9.4856 12.0301C9.78168 12.0301 10.0142 12.0711 10.1806 12.1157C10.1732 12.1966 10.1689 12.2782 10.1689 12.3609C10.1689 13.8161 11.3527 15 12.8078 15C14.2629 15 15.4468 13.8161 15.4468 12.3609C15.4468 10.9058 14.2629 9.72174 12.8078 9.72174Z" fill="#8D81D3"/>
<path id="Vector_2" d="M17.2378 6.3307H15.4833C15.4445 6.11343 15.3937 5.83035 15.337 5.51555H3.66355C3.60682 5.83035 3.5561 6.11343 3.51726 6.3307H1.76273C0.980129 6.3307 0.343262 6.96743 0.343262 7.75017V7.76233C0.343262 8.54507 0.980129 9.18179 1.76273 9.18179H17.2378C18.0206 9.18179 18.6573 8.54507 18.6573 7.76233V7.75017C18.6573 6.96743 18.0204 6.3307 17.2378 6.3307Z" fill="#9F91F0"/>
<path id="Vector_3" d="M14.8634 2.93426C14.6295 1.71027 14.3668 0.909641 13.7164 0.439886C13.0048 -0.0743026 11.8974 -0.00960986 11.1956 0.587296C11.1519 0.624463 11.1066 0.663586 11.0599 0.703966C10.6268 1.07815 10.0879 1.54371 9.50018 1.54371C8.9125 1.54371 8.37358 1.07815 7.94043 0.703966C7.89376 0.663586 7.84849 0.624463 7.80476 0.587296C7.10292 -0.00960986 5.99574 -0.0743026 5.28398 0.439886C4.63356 0.909641 4.37088 1.71027 4.13698 2.93426C4.06083 3.33289 3.95953 3.88299 3.85767 4.44231H15.1427C15.0408 3.88299 14.9395 3.33289 14.8634 2.93426Z" fill="#9F91F0"/>
</g>
</svg>
