<svg width="16" height="16" viewBox="0 0 16 16" fill="none" xmlns="http://www.w3.org/2000/svg">
<path id="Vector" d="M0.324646 15.6754C0.22172 15.5724 0.140075 15.4502 0.0843727 15.3158C0.0286699 15.1813 0 15.0372 0 14.8916C0 14.746 0.0286699 14.6019 0.0843727 14.4674C0.140075 14.3329 0.22172 14.2108 0.324646 14.1078L2.67592 11.7565L1.1084 10.189C0.900539 9.98109 0.783761 9.69916 0.783761 9.4052C0.783761 9.11123 0.900539 8.8293 1.1084 8.62144C1.31627 8.41357 1.5982 8.29679 1.89216 8.29679C2.18613 8.29679 2.46806 8.41357 2.67592 8.62144L7.37856 13.324C7.58644 13.5319 7.70323 13.8138 7.70323 14.1078C7.70324 14.4017 7.58647 14.6837 7.3786 14.8916C7.17073 15.0994 6.8888 15.2162 6.59483 15.2162C6.30085 15.2162 6.01892 15.0995 5.81104 14.8916L4.24352 13.324L1.89216 15.6754C1.78924 15.7783 1.66705 15.8599 1.53257 15.9156C1.3981 15.9713 1.25396 16 1.1084 16C0.962847 16 0.818715 15.9713 0.684237 15.9156C0.549759 15.8599 0.42757 15.7783 0.324646 15.6754V15.6754ZM15.2 0H13.1963C12.9841 2.87756e-06 12.7807 0.0842903 12.6306 0.23432L4.59104 8.27392L7.726 11.4091L15.766 3.36912C15.9158 3.2191 16 3.01572 16 2.80368V0.8C16 0.587827 15.9157 0.384343 15.7657 0.234314C15.6157 0.0842854 15.4122 0 15.2 0V0ZM13.3241 11.7565L14.8916 10.189C15.0995 9.98109 15.2162 9.69916 15.2162 9.4052C15.2162 9.11123 15.0995 8.8293 14.8916 8.62144C14.6837 8.41357 14.4018 8.29679 14.1078 8.29679C13.8139 8.29679 13.5319 8.41357 13.3241 8.62144L8.62144 13.324C8.51851 13.4269 8.43686 13.5491 8.38115 13.6836C8.32545 13.8181 8.29677 13.9622 8.29677 14.1078C8.29676 14.4017 8.41353 14.6837 8.6214 14.8916C8.82927 15.0994 9.1112 15.2162 9.40517 15.2162C9.69915 15.2162 9.98108 15.0995 10.189 14.8916L11.7565 13.324L14.1078 15.6754C14.3157 15.8832 14.5976 16 14.8916 16C15.1856 16 15.4675 15.8832 15.6754 15.6754C15.8832 15.4675 16 15.1856 16 14.8916C16 14.5976 15.8832 14.3157 15.6754 14.1078L13.3241 11.7565ZM2.80368 0H0.800005C0.587832 0 0.384349 0.0842854 0.23432 0.234314C0.0842911 0.384343 5.72204e-06 0.587827 5.72204e-06 0.8V2.80368C-3.3596e-06 2.90875 0.0206854 3.01279 0.0608903 3.10987C0.101095 3.20694 0.160029 3.29514 0.234326 3.36944L3.734 6.86904L6.86896 3.73384L3.36936 0.23432C3.21934 0.0842903 3.01586 2.87756e-06 2.80368 0Z" fill="#FCA31E"/>
</svg>
