<svg width="19" height="23" viewBox="0 0 19 23" fill="none" xmlns="http://www.w3.org/2000/svg">
<path d="M11.8238 20.0434C11.8238 18.4839 10.5868 17.2197 9.06083 17.2197C7.53482 17.2197 6.29785 18.4839 6.29785 20.0434C6.29785 21.6029 7.53482 22.8671 9.06083 22.8671C10.5868 22.8671 11.8238 21.6029 11.8238 20.0434Z" fill="#FCA31E"/>
<path d="M9.06111 17.2197C8.78178 17.2197 8.51218 17.2625 8.25806 17.3413C9.39226 17.6928 10.218 18.7693 10.218 20.0434C10.218 21.3174 9.39226 22.394 8.25806 22.7455C8.51218 22.8244 8.78178 22.8671 9.06111 22.8671C10.5871 22.8671 11.8241 21.6029 11.8241 20.0434C11.8241 18.4839 10.5871 17.2197 9.06111 17.2197Z" fill="#DC901E"/>
<path d="M9.38408 3.56361C8.49662 3.74582 7.63292 3.15849 7.45457 2.25153C7.27621 1.34476 7.85105 0.461928 8.73833 0.279726C9.62561 0.0975229 10.4895 0.684846 10.6678 1.59181C10.846 2.49858 10.2714 3.38141 9.38408 3.56361Z" fill="#FFB444"/>
<path d="M10.6677 1.59181C10.4894 0.684846 9.62549 0.0975229 8.73821 0.279726C8.6556 0.296675 8.57587 0.319888 8.49902 0.348259C9.01699 0.542068 9.42716 0.998588 9.54378 1.59181C9.70558 2.41421 9.24772 3.21689 8.4992 3.49508C8.77313 3.59751 9.0771 3.62662 9.38396 3.56361C10.2712 3.38141 10.8459 2.49858 10.6677 1.59181Z" fill="#F3A837"/>
<path d="M15.9042 19.5709H2.21747C0.992743 19.5709 0 18.5563 0 17.3049C0 16.612 0.306858 15.9563 0.834545 15.5213L1.27422 15.1588C2.29126 14.3205 2.88266 13.0569 2.88266 11.7216V9.34008C2.88266 5.82627 5.66976 2.97791 9.108 2.97791C12.5461 2.97791 15.3333 5.82627 15.3333 9.34008V11.7656C15.3333 13.0757 15.9026 14.3183 16.8872 15.1573L17.3154 15.5221C17.8264 15.9574 18.1217 16.6022 18.1217 17.282V17.3049C18.1217 18.5563 17.129 19.5709 15.9042 19.5709Z" fill="#FCA31E"/>
</svg>
