<svg width="18" height="18" viewBox="0 0 18 18" fill="none" xmlns="http://www.w3.org/2000/svg">
<path id="Vector" d="M5.20325 13.3354C4.41685 13.2952 4.43165 12.1891 5.20322 12.1507C7.38881 12.1583 13.1535 12.1527 15.4086 12.1543C16.0254 12.1543 16.5531 11.7346 16.6918 11.1336L17.9723 5.58861C18.0457 5.27113 17.9716 4.94252 17.7693 4.68712C17.567 4.43171 17.2641 4.28317 16.9383 4.28317C16.0311 4.28317 8.33041 4.24831 4.38614 4.23259L3.7609 1.91269C3.61081 1.3583 3.10489 0.97113 2.53056 0.97113H0.527624C0.236235 0.97113 0 1.20737 0 1.49875C0 1.79014 0.236235 2.02638 0.527624 2.02638H2.53056C2.62943 2.02638 2.71649 2.09304 2.7422 2.1879L5.14342 11.0969C4.72122 11.1122 4.32796 11.2839 4.02975 11.5865C3.71641 11.9045 3.54813 12.3254 3.5559 12.7717C3.57145 13.6644 4.31044 14.3906 5.20325 14.3906H5.9726C5.85824 14.6306 5.79405 14.899 5.79405 15.1821C5.79405 16.2004 6.62249 17.0288 7.64081 17.0288C8.65912 17.0288 9.48756 16.2004 9.48756 15.1821C9.48756 14.8989 9.42333 14.6306 9.30898 14.3906H12.6406C12.5264 14.6305 12.4622 14.8988 12.4622 15.1818C12.4622 16.2001 13.2906 17.0285 14.3089 17.0285C15.3272 17.0285 16.1557 16.2 16.1557 15.1818C16.1557 14.8877 16.0863 14.6097 15.9635 14.3627C16.1723 14.2924 16.3229 14.0955 16.3229 13.863C16.3229 13.5716 16.0866 13.3354 15.7952 13.3354H5.20325ZM8.43228 15.1821C8.43228 15.6185 8.07722 15.9736 7.64077 15.9736C7.20432 15.9736 6.84926 15.6185 6.84926 15.1821C6.84926 14.7459 7.20397 14.391 7.6401 14.3906H7.64144C8.07757 14.391 8.43228 14.7459 8.43228 15.1821ZM14.309 15.9733C13.8725 15.9733 13.5174 15.6182 13.5174 15.1818C13.5174 14.7497 13.8656 14.3975 14.2961 14.3906H14.3218C14.7524 14.3975 15.1005 14.7497 15.1005 15.1818C15.1005 15.6182 14.7454 15.9733 14.309 15.9733ZM16.9421 5.34228C16.9453 5.34622 16.9448 5.34809 16.9442 5.35111L16.4046 7.68761H14.5775L14.8887 5.33008L16.9341 5.33831C16.9372 5.33838 16.9391 5.33838 16.9421 5.34228ZM11.5025 11.099V8.74286H13.3739L13.063 11.099H11.5025ZM8.88614 11.099L8.57266 8.74286H10.4473V11.099H8.88614ZM6.4572 11.099H6.45555C6.32695 11.099 6.21365 11.0122 6.1802 10.8887L5.60185 8.74286H7.50809L7.82157 11.099H6.4572ZM8.43224 7.68764L8.11493 5.30282L10.4472 5.31221V7.68764H8.43224ZM11.5025 7.68764V5.31647L13.8248 5.32582L13.5132 7.68764H11.5025ZM7.0498 5.29849L7.36767 7.68761H5.31743L4.67092 5.28889L7.0498 5.29849ZM15.4086 11.099H14.1273L14.4383 8.74286H16.1609L15.6636 10.8962C15.636 11.0156 15.5312 11.099 15.4086 11.099Z" fill="#ADA3EF"/>
</svg>
