<svg width="20" height="22" viewBox="0 0 20 22" fill="none" xmlns="http://www.w3.org/2000/svg">
<g id="Group 1259">
<path id="Vector" d="M15.2363 7.39307H4.76343C4.44486 8.06092 4.27129 8.7945 4.27271 9.55664L4.27629 13.1074H7.14343C7.14343 11.9238 8.10272 10.9645 9.28629 10.9645H10.7149C11.8984 10.9645 12.8577 11.9238 12.8577 13.1074H15.7249L15.7284 9.55664C15.7299 8.7945 15.5563 8.06092 15.2377 7.39307H15.2363Z" fill="#FCA31E"/>
<path id="Vector_2" d="M4.28436 21.6785H15.7158L15.723 14.5356H12.8572C12.8572 15.7192 11.8979 16.6785 10.7144 16.6785H9.2858C8.10223 16.6785 7.14294 15.7192 7.14294 14.5356H4.27722L4.28436 21.6785Z" fill="#FCA31E"/>
<path id="Vector_3" d="M17.1564 9.55876L17.1528 13.1073H20V11.6788C20 9.70019 18.6571 8.03947 16.835 7.5459C17.0442 8.18733 17.1578 8.86376 17.1564 9.55804V9.55876Z" fill="#FCA31E"/>
<path id="Vector_4" d="M2.84715 13.1073L2.84358 9.55804C2.84215 8.86376 2.95572 8.18733 3.165 7.5459C1.34215 8.03876 0 9.70019 0 11.6788V13.1073H2.84715Z" fill="#FCA31E"/>
<path id="Vector_5" d="M17.1514 14.5356L17.1443 21.6785H17.8571C19.0407 21.6785 20 20.7192 20 19.5357V14.5356H17.1514Z" fill="#FCA31E"/>
<path id="Vector_6" d="M2.84858 14.5356H0V19.5357C0 20.7192 0.959287 21.6785 2.14286 21.6785H2.85572L2.84858 14.5356Z" fill="#FCA31E"/>
<path id="Vector_7" d="M10.7144 12.3931H9.28582C8.89133 12.3931 8.57153 12.7129 8.57153 13.1074V14.5359C8.57153 14.9304 8.89133 15.2502 9.28582 15.2502H10.7144C11.1089 15.2502 11.4287 14.9304 11.4287 14.5359V13.1074C11.4287 12.7129 11.1089 12.3931 10.7144 12.3931Z" fill="#FCA31E"/>
<path id="Vector_8" d="M9.99993 4.53579C10.3949 4.53579 10.7142 4.21579 10.7142 3.8215V1.67864C10.7142 1.28436 10.3949 0.964355 9.99993 0.964355C9.60493 0.964355 9.28564 1.28436 9.28564 1.67864V3.8215C9.28564 4.21579 9.60493 4.53579 9.99993 4.53579Z" fill="#FCA31E"/>
<path id="Vector_9" d="M4.90784 5.65193C5.04641 5.8505 5.26856 5.95622 5.49356 5.95622C5.63499 5.95622 5.77784 5.91407 5.90213 5.82693C6.2257 5.6005 6.30356 5.1555 6.07784 4.83193L4.84856 3.07621C4.62284 2.75264 4.1757 2.67478 3.85355 2.9005C3.52998 3.12693 3.45213 3.57193 3.67784 3.8955L4.90713 5.65121L4.90784 5.65193Z" fill="#FCA31E"/>
<path id="Vector_10" d="M14.5064 5.95648C14.7314 5.95648 14.9535 5.85076 15.0921 5.65219L16.3214 3.89647C16.5471 3.5729 16.4692 3.1279 16.1457 2.90147C15.8242 2.67576 15.3771 2.75362 15.1507 3.07719L13.9214 4.8329C13.6957 5.15648 13.7735 5.60148 14.0971 5.82791C14.2214 5.91505 14.3642 5.95719 14.5057 5.95719L14.5064 5.95648Z" fill="#FCA31E"/>
</g>
</svg>
