<svg width="19" height="16" viewBox="0 0 19 16" fill="none" xmlns="http://www.w3.org/2000/svg">
<g id="Group">
<g id="Page-1_3_">
<g id="indoors_filled_3_">
<path id="box_x2C_-unboxing_x2C_-storage_x2C_-package_x2C_-shipment" d="M8.46513 15.7164L2.16555 12.5666C1.97908 12.4734 1.86133 12.2829 1.86133 12.0744V9.24259L4.85214 10.738C5.3944 11.0091 6.03264 11.0091 6.57489 10.738L6.61817 10.7164L8.4651 9.58015V15.7164H8.46513ZM9.56575 15.7164V9.58011L11.4127 10.7163L11.4559 10.738C11.9982 11.0091 12.6364 11.0091 13.1787 10.738L16.1695 9.24255V12.0744C16.1695 12.2828 16.0518 12.4734 15.8653 12.5666L9.56575 15.7164ZM1.73144 4.64518L0.45649 4.00773C0.0487338 3.80385 -0.116554 3.30802 0.0873238 2.90027C0.167201 2.74051 0.296736 2.61098 0.45649 2.5311L5.34435 0.0871852C5.57675 -0.0290127 5.85029 -0.0290127 6.08265 0.0871852L8.53876 1.31524C8.36457 1.35387 8.19393 1.41395 8.03095 1.49546L1.73144 4.64518ZM9.49204 1.31521L11.9482 0.0871484C12.1806 -0.0290495 12.4541 -0.0290495 12.6865 0.0871484L17.5743 2.53106C17.7341 2.61094 17.8636 2.74048 17.9435 2.90023C18.1474 3.30799 17.9821 3.80381 17.5743 4.00769L16.2994 4.64515L9.99982 1.49536C9.83684 1.41392 9.66623 1.35383 9.49204 1.31521V1.31521ZM6.08272 9.75353C5.85033 9.86972 5.57679 9.86972 5.34443 9.75353L0.456525 7.30961C0.296771 7.22973 0.167236 7.1002 0.0873585 6.94045C-0.11652 6.53269 0.048733 6.03686 0.456525 5.83295L1.73147 5.19549L8.21904 8.43928L6.08272 9.75353ZM17.5744 5.83295C17.9821 6.03683 18.1474 6.53265 17.9435 6.94045C17.8636 7.1002 17.7341 7.22973 17.5744 7.30961L12.6865 9.75353C12.4541 9.86972 12.1806 9.86972 11.9482 9.75353L9.81187 8.43928L16.2994 5.19549L17.5744 5.83295ZM14.3887 4.92036L9.01544 7.60695L3.64221 4.92036L8.52323 2.47985C8.83309 2.32491 9.19779 2.32491 9.50768 2.47985L14.3887 4.92036Z" fill="#FCA31E"/>
</g>
</g>
</g>
</svg>
