<svg width="13" height="16" viewBox="0 0 13 16" fill="none" xmlns="http://www.w3.org/2000/svg">
<g id="Group 869">
<g id="Group">
<g id="Group_2">
<path id="Vector" d="M5.33287 14.1333C7.24745 14.1333 8.79952 11.3873 8.79952 7.99998C8.79952 4.61263 7.24745 1.86664 5.33287 1.86664C3.41829 1.86664 1.86621 4.61263 1.86621 7.99998C1.86621 11.3873 3.41829 14.1333 5.33287 14.1333Z" fill="#FCA31E"/>
</g>
</g>
<g id="Group_3">
<g id="Group_4">
<path id="Vector_2" d="M12.7995 8C12.7995 7.54559 12.7728 7.10053 12.724 6.66666H12.7296L12.6877 6.36347C12.6851 6.344 12.6808 6.32534 12.6779 6.30613C12.6507 6.11706 12.6187 5.93066 12.5827 5.74694C12.5688 5.67494 12.5539 5.60347 12.5387 5.53228C12.5075 5.38828 12.4733 5.24641 12.4368 5.10616C12.4062 4.98722 12.3731 4.86987 12.3387 4.75334C12.3093 4.65469 12.2792 4.55681 12.2475 4.46053C12.1939 4.29787 12.136 4.13894 12.075 3.98134C12.055 3.92987 12.0355 3.87816 12.0147 3.82747C11.9878 3.76134 11.9646 3.69253 11.9363 3.62719L11.8664 3.46666H11.8573C11.6336 2.98053 11.3752 2.53359 11.0872 2.13331H11.1286L10.7539 1.69384C10.2406 1.09144 9.66909 0.649312 9.06162 0.365844C9.04591 0.358375 9.03016 0.351969 9.01444 0.344781C8.89097 0.289031 8.76591 0.239438 8.6395 0.197313C8.58084 0.177594 8.52191 0.158906 8.46244 0.141844C8.40856 0.126656 8.35497 0.110906 8.30056 0.098375C8.18803 0.0717188 8.07416 0.0511875 7.9595 0.0354375C7.92562 0.0309062 7.8915 0.0274375 7.85738 0.0237188C7.72828 0.00959375 7.59816 0 7.46669 0H5.33334C2.39256 0 0 3.58881 0 8C0 12.4112 2.39253 16 5.33334 16H7.46669C7.59841 16 7.72828 15.9904 7.85763 15.9763C7.89175 15.9726 7.92563 15.9691 7.95975 15.9646C8.07469 15.9486 8.18828 15.928 8.30081 15.9016C8.35494 15.8891 8.40853 15.8733 8.46216 15.8582C8.52188 15.8411 8.58109 15.8224 8.64003 15.8027C8.76591 15.7608 8.89016 15.7115 9.01337 15.6558C9.02966 15.6483 9.04591 15.6416 9.06219 15.6339C9.66937 15.3504 10.2408 14.9085 10.7542 14.3062L11.1286 13.8667H11.0878C11.3758 13.4664 11.6342 13.0195 11.8579 12.5333H11.867L11.9366 12.3728C11.9648 12.3077 11.988 12.2389 12.0147 12.1728C12.036 12.1211 12.0557 12.0683 12.076 12.0157C12.1366 11.8595 12.1942 11.7016 12.2472 11.5403C12.2797 11.4424 12.3102 11.3429 12.34 11.2427C12.3739 11.1275 12.4067 11.0118 12.4368 10.8942C12.4734 10.7533 12.5078 10.6107 12.539 10.4662C12.5542 10.3952 12.5688 10.324 12.5827 10.2526C12.6187 10.0688 12.6507 9.88244 12.6779 9.69363C12.6805 9.67416 12.6851 9.65575 12.6877 9.63628L12.7296 9.33309H12.724C12.7728 8.89947 12.7995 8.45441 12.7995 8ZM12.0019 5.56159C12.004 5.57147 12.0062 5.58159 12.0083 5.59147C12.0475 5.76959 12.0827 5.95012 12.1133 6.13306H10.5203C10.516 6.10666 10.5102 6.08106 10.5059 6.05494C10.4875 5.94534 10.4672 5.83706 10.4459 5.72934C10.4208 5.60163 10.3931 5.47547 10.364 5.34987C10.3528 5.30322 10.3421 5.25628 10.3307 5.20988C10.2275 4.79253 10.104 4.38747 9.95494 3.99975H11.5144C11.7173 4.49281 11.88 5.01547 12.0019 5.56159ZM11.2766 3.46666H9.72403C9.7235 3.46584 9.72322 3.46506 9.72269 3.464C9.70775 3.43172 9.69256 3.40028 9.67734 3.36828C9.61706 3.24134 9.55469 3.11709 9.48962 2.99575C9.4795 2.97681 9.46991 2.95709 9.4595 2.93841C9.38644 2.80453 9.30991 2.67494 9.23122 2.54853C9.21256 2.51866 9.19362 2.48934 9.17497 2.46C9.1035 2.348 9.03016 2.23894 8.95416 2.13334H10.4304C10.7467 2.52134 11.0312 2.96906 11.2766 3.46666ZM7.46616 0.533344C7.56481 0.533344 7.66297 0.539469 7.76056 0.548813C7.78991 0.551469 7.81897 0.55575 7.84828 0.559219C7.92 0.568031 7.99147 0.579219 8.06241 0.593094C8.09094 0.598688 8.11975 0.60375 8.14828 0.610156C8.34269 0.653344 8.53416 0.714969 8.72269 0.794688C8.74269 0.803219 8.76216 0.812281 8.78216 0.821094C8.86856 0.85975 8.95444 0.901094 9.03922 0.9475C9.04641 0.9515 9.05387 0.954969 9.06109 0.958969C9.36216 1.12538 9.65281 1.3395 9.93016 1.60003H8.53869C8.14241 1.15256 7.71362 0.7955 7.26081 0.533375H7.46616V0.533344ZM5.33281 14.6667C3.16453 14.6667 1.33281 11.6138 1.33281 8C1.33281 4.38616 3.16453 1.33334 5.33281 1.33334C7.50109 1.33334 9.33281 4.38616 9.33281 8C9.33281 11.6138 7.50109 14.6667 5.33281 14.6667ZM9.06081 15.0413C9.05387 15.0451 9.04694 15.0485 9.04 15.0523C8.95466 15.0987 8.86853 15.1406 8.78159 15.1792C8.76212 15.1877 8.74266 15.1968 8.72294 15.2051C8.53441 15.2851 8.34266 15.3467 8.148 15.3899C8.11972 15.3963 8.09119 15.4014 8.06241 15.407C7.99122 15.4208 7.91975 15.432 7.848 15.4408C7.81894 15.4443 7.78988 15.4483 7.76053 15.4513C7.66266 15.4606 7.56481 15.4667 7.46612 15.4667H7.26106C7.71359 15.2046 8.14241 14.8475 8.53866 14.4001H9.93012C9.65281 14.6608 9.36187 14.8747 9.06081 15.0413ZM10.4302 13.8667H8.95387C9.02987 13.7611 9.10322 13.652 9.17494 13.54C9.19387 13.5107 9.21281 13.4813 9.23119 13.4515C9.30984 13.3251 9.38638 13.1955 9.45947 13.0616C9.46988 13.0427 9.47947 13.0232 9.48959 13.0042C9.55466 12.8829 9.61706 12.7587 9.67731 12.6317C9.6925 12.5997 9.70772 12.5683 9.72266 12.536C9.72291 12.5352 9.72347 12.5344 9.724 12.5333H11.2765C11.0312 13.0309 10.7467 13.4787 10.4302 13.8667ZM12.0083 10.4083C12.0062 10.4182 12.004 10.4283 12.0019 10.4382C11.88 10.9843 11.7173 11.507 11.5144 12H9.95494C10.1043 11.612 10.2277 11.2064 10.3309 10.7891C10.3421 10.7438 10.3528 10.6976 10.3635 10.652C10.3931 10.5248 10.4211 10.3971 10.4464 10.2675C10.4675 10.1608 10.4875 10.0536 10.5059 9.94509C10.5102 9.91869 10.516 9.89309 10.5203 9.86669H12.1133C12.0829 10.0496 12.0475 10.2301 12.0083 10.4083ZM12.188 9.33334H10.5907C10.5923 9.31922 10.5942 9.30534 10.5957 9.29147C10.5976 9.27306 10.6003 9.25519 10.6022 9.23681C10.6208 9.05763 10.6344 8.87628 10.6448 8.69334C10.6475 8.64963 10.6496 8.60588 10.6515 8.56216C10.66 8.37628 10.6661 8.18909 10.6661 8.00003C10.6661 7.81097 10.6602 7.62375 10.6515 7.43791C10.6493 7.39419 10.6472 7.35044 10.6448 7.30672C10.6344 7.12406 10.6208 6.94244 10.6022 6.76325C10.6003 6.74484 10.5976 6.72697 10.5957 6.70859C10.5942 6.69447 10.5923 6.68059 10.5907 6.66672H12.188C12.2384 7.09978 12.2662 7.54484 12.2662 8.00006C12.2662 8.45528 12.2384 8.90028 12.188 9.33334Z" fill="#FCA31E"/>
</g>
</g>
</g>
</svg>
