<svg width="20" height="22" viewBox="0 0 20 22" fill="none" xmlns="http://www.w3.org/2000/svg">
<path d="M6.17725 16.5952C8.13245 17.3453 10.7933 15.1492 12.1205 11.69C13.4476 8.23076 12.9385 4.81842 10.9833 4.0683C9.02806 3.31818 6.36719 5.51433 5.04005 8.97355C3.71291 12.4328 4.22205 15.8451 6.17725 16.5952Z" fill="#FCA31E"/>
<path d="M16.2054 13.2571C16.3834 12.7931 16.5306 12.3281 16.6507 11.8659L16.6564 11.8681L16.7324 11.5421C16.7374 11.5212 16.7403 11.5005 16.7448 11.4797C16.7911 11.276 16.8315 11.0731 16.8667 10.8713C16.8807 10.7924 16.8935 10.7135 16.9059 10.6349C16.9304 10.4756 16.9511 10.3173 16.9688 10.1598C16.9841 10.0263 16.9963 9.89355 17.0068 9.76106C17.0155 9.64882 17.0231 9.53706 17.0284 9.42631C17.0374 9.23921 17.0406 9.05422 17.04 8.86936C17.0397 8.80897 17.0401 8.74852 17.0387 8.6886C17.0371 8.61052 17.0404 8.53117 17.0371 8.45336L17.0286 8.26204L17.0194 8.25849C16.9814 7.6744 16.8926 7.11674 16.7553 6.59513L16.7975 6.61133L16.5871 6.01575C16.2989 5.19944 15.8885 4.52403 15.3792 3.99655C15.3661 3.98276 15.3525 3.97005 15.3393 3.95655C15.235 3.85125 15.1267 3.7516 15.0142 3.65906C14.962 3.61594 14.9091 3.57376 14.8551 3.53304C14.806 3.49642 14.7574 3.45934 14.7068 3.42523C14.6023 3.35392 14.4941 3.28833 14.3832 3.22733C14.3503 3.20943 14.3168 3.19252 14.2835 3.17535C14.1572 3.11035 14.028 3.04957 13.8938 2.99806L11.7152 2.16223C8.712 1.01005 4.8626 3.73761 3.13433 8.24239C1.40606 12.7472 2.44328 17.3495 5.44648 18.5017L7.62508 19.3375C7.7596 19.3891 7.89599 19.4302 8.03361 19.4664C8.06991 19.476 8.10587 19.4858 8.14249 19.4945C8.26613 19.5232 8.39018 19.5467 8.51545 19.5638C8.57563 19.5723 8.63653 19.5772 8.69724 19.5827C8.76491 19.5886 8.8327 19.5928 8.90062 19.5957C9.04558 19.6023 9.19178 19.6006 9.33946 19.5919C9.35901 19.5907 9.37821 19.5903 9.39788 19.5887C10.129 19.5371 10.8857 19.3098 11.646 18.8957L12.2005 18.5936L12.1588 18.5777C12.6098 18.2817 13.0487 17.9266 13.4677 17.5178L13.4769 17.5213L13.6109 17.3846C13.6653 17.3293 13.7159 17.2681 13.769 17.211C13.8111 17.1665 13.8519 17.1203 13.8932 17.0746C14.0163 16.9388 14.1369 16.8001 14.2543 16.6562C14.3259 16.5689 14.3959 16.4793 14.4657 16.3886C14.5454 16.2842 14.6242 16.1789 14.7011 16.0706C14.7936 15.9411 14.8846 15.8089 14.9731 15.6735C15.0164 15.6071 15.0593 15.5401 15.1014 15.4725C15.2102 15.299 15.3159 15.1212 15.4176 14.939C15.428 14.9202 15.4398 14.9032 15.4502 14.8844L15.6117 14.5911L15.606 14.5889C15.8257 14.1652 16.0273 13.7212 16.2054 13.2571ZM16.3462 10.4545C16.3445 10.4654 16.3427 10.4766 16.341 10.4875C16.3112 10.6848 16.2765 10.8829 16.2361 11.0818L14.6093 10.4576C14.6152 10.429 14.6193 10.4005 14.6252 10.3722C14.6493 10.2531 14.671 10.1345 14.6914 10.0162C14.7159 9.87593 14.737 9.73623 14.7565 9.59658C14.7634 9.54455 14.7708 9.49243 14.7773 9.44055C14.8354 8.97392 14.8681 8.51189 14.8677 8.05754L16.4603 8.66853C16.4744 9.25157 16.4357 9.84905 16.3462 10.4545ZM16.4263 8.03094L14.8408 7.42267C14.8406 7.42164 14.8406 7.42073 14.8405 7.41943C14.8379 7.38062 14.8347 7.34256 14.8317 7.30392C14.8198 7.15067 14.8048 6.99935 14.7859 6.84994C14.783 6.82663 14.7809 6.80274 14.7776 6.77957C14.7555 6.61423 14.7281 6.45191 14.6972 6.29199C14.6899 6.25417 14.682 6.21682 14.6745 6.17954C14.6454 6.03717 14.6132 5.89705 14.577 5.75944L16.0846 6.33784C16.2555 6.85798 16.3707 7.42667 16.4263 8.03094ZM13.6843 3.54251C13.785 3.58116 13.8829 3.62587 13.9789 3.67365C14.0078 3.68786 14.0358 3.70362 14.0644 3.71865C14.1342 3.75575 14.2028 3.79517 14.2698 3.83713C14.2967 3.85402 14.3241 3.87048 14.3508 3.8882C14.5324 4.00847 14.7038 4.14642 14.8651 4.3017C14.8821 4.31825 14.8985 4.33513 14.9155 4.35196C14.9885 4.42529 15.06 4.50116 15.1284 4.58177C15.1342 4.58867 15.1405 4.59514 15.1463 4.60205C15.3885 4.88994 15.6015 5.22249 15.7826 5.59721L14.3616 5.05204C14.1323 4.43982 13.8343 3.90718 13.4746 3.46209L13.6843 3.54254L13.6843 3.54251ZM5.96833 17.1398C3.75405 16.2903 3.07954 12.4551 4.49542 8.76457C5.9113 5.07406 8.97795 2.67413 11.1922 3.52365C13.4065 4.37317 14.081 8.2084 12.6651 11.8989C11.2493 15.5894 8.18261 17.9894 5.96833 17.1398ZM9.62862 18.9831C9.62008 18.9842 9.61164 18.985 9.60308 18.9861C9.49775 19 9.39339 19.0091 9.28946 19.0145C9.26624 19.0156 9.2428 19.0172 9.21942 19.0179C8.99555 19.0258 8.7756 19.0135 8.55988 18.9814C8.52849 18.9769 8.49737 18.9709 8.46578 18.9653C8.38765 18.9516 8.31028 18.935 8.23356 18.9159C8.20252 18.908 8.17127 18.9007 8.14016 18.8922C8.03654 18.8634 7.93422 18.8314 7.83344 18.7927L7.62403 18.7123C8.18886 18.622 8.76667 18.4253 9.34664 18.1236L10.7676 18.6688C10.3823 18.8264 10.0014 18.9308 9.62862 18.9831ZM11.4873 18.32L9.97965 17.7416C10.0986 17.6635 10.2163 17.5809 10.3334 17.4946C10.3642 17.472 10.395 17.4495 10.4255 17.4262C10.5554 17.328 10.6843 17.2256 10.8114 17.1175C10.8294 17.1023 10.8469 17.0861 10.8646 17.0708C10.9786 16.9723 11.091 16.8699 11.2023 16.7639C11.2303 16.7371 11.2582 16.711 11.2861 16.6839C11.2867 16.6832 11.2875 16.6826 11.2885 16.6817L12.874 17.29C12.4285 17.702 11.9625 18.0478 11.4873 18.32ZM14.4538 15.4065C14.4478 15.4158 14.4416 15.4253 14.4356 15.4345C14.0971 15.9445 13.7263 16.4145 13.3258 16.8385L11.7333 16.2276C12.0378 15.8898 12.3228 15.524 12.5917 15.1382C12.6209 15.0963 12.6499 15.0534 12.6786 15.011C12.7587 14.8927 12.8373 14.7732 12.914 14.6508C12.9773 14.5502 13.0397 14.4485 13.101 14.3449C13.1157 14.3196 13.1317 14.2957 13.1464 14.2704L14.7733 14.8946C14.6706 15.0695 14.5636 15.2399 14.4538 15.4065ZM15.0585 14.3792L13.4273 13.7534C13.4345 13.7396 13.4418 13.7261 13.4489 13.7126C13.458 13.6945 13.4677 13.6773 13.4768 13.6593C13.5661 13.4836 13.6511 13.3038 13.7333 13.121C13.7532 13.0774 13.7725 13.0336 13.7915 12.9896C13.8731 12.8032 13.9527 12.6144 14.0267 12.4213C14.1008 12.2283 14.1682 12.0348 14.232 11.8415C14.247 11.7961 14.2619 11.7505 14.2766 11.705C14.3375 11.5144 14.3948 11.3235 14.446 11.1332C14.4513 11.1137 14.4556 11.0944 14.4608 11.0749C14.4647 11.0599 14.4683 11.045 14.4721 11.0302L16.1033 11.656C15.9851 12.118 15.839 12.5834 15.6607 13.0482C15.4823 13.5131 15.2797 13.9567 15.0585 14.3792Z" fill="#FCA31E"/>
</svg>
