<svg width="16" height="16" viewBox="0 0 16 16" fill="none" xmlns="http://www.w3.org/2000/svg">
<path id="path7143" d="M14.2058 0C11.5441 0 7.97263 1.8261 5.57425 4.96559H3.58602C2.14936 4.96559 1.32594 6.03791 0.75899 7.17193L0 8.68978H1.79183H3.58602L5.44812 10.5519L7.31022 12.414V14.2082V16L8.82807 15.2411C9.96209 14.6741 11.0344 13.8506 11.0344 12.414V10.4258C14.1739 8.02737 16 4.45587 16 1.79419V0H14.2058ZM11.0344 3.72419C11.72 3.72419 12.2758 4.27997 12.2758 4.96559C12.2758 5.65121 11.72 6.20699 11.0344 6.20699C10.3488 6.20699 9.79301 5.65121 9.79301 4.96559C9.79301 4.27997 10.3488 3.72419 11.0344 3.72419ZM2.96533 11.1726L2.34463 11.7933C1.44809 12.6898 1.10323 14.8968 1.10323 14.8968C1.10323 14.8968 3.21112 14.651 4.20672 13.6554L4.82742 13.0347L2.96533 11.1726Z" fill="#FCA31E"/>
</svg>
