<svg width="11" height="16" viewBox="0 0 11 16" fill="none" xmlns="http://www.w3.org/2000/svg">
<path id="Vector" d="M5.46422 0C2.83216 0 0 0.949117 0 3.03534V10.2431C0 11.5562 0.594312 12.7751 1.62834 13.5848L2.88674 14.5703C3.37193 14.9523 3.97839 15.1615 4.59696 15.1615H6.33147C6.95004 15.1615 7.5565 14.9523 8.04471 14.5703L9.30009 13.5848C10.3341 12.7751 10.9284 11.5562 10.9284 10.2431V3.03534C10.9284 0.949117 8.09625 0 5.46422 0ZM1.50713 4.86771C1.4858 4.7235 1.5699 4.58432 1.70745 4.53665C1.74742 4.52273 2.69251 4.20172 3.60013 4.60979C4.49561 5.01192 4.98288 5.95952 5.00315 5.99978C5.07866 6.14934 5.01886 6.33145 4.86932 6.40727C4.83081 6.4268 4.13863 6.7712 3.4038 6.7712C3.15402 6.7712 2.89934 6.7315 2.66364 6.62549C1.71544 6.19967 1.51525 4.92189 1.50713 4.86771ZM8.69435 10.4615C7.70647 12.0795 6.58194 12.9341 5.44172 12.9341C5.43653 12.9341 5.43165 12.9341 5.42662 12.9341C4.27662 12.9267 3.20213 12.0934 2.23308 10.4579C2.16422 10.3419 2.18051 10.1944 2.27289 10.0958C2.36514 9.99807 2.51143 9.97141 2.63166 10.0333C4.40602 10.9374 6.52404 10.9374 8.29783 10.0333C8.41865 9.97081 8.56598 9.99807 8.65807 10.0973C8.75016 10.1968 8.76498 10.3457 8.69435 10.4615ZM8.26584 6.62549C8.03028 6.73121 7.77546 6.7712 7.52569 6.7712C6.79085 6.7712 6.09868 6.4268 6.06018 6.40727C5.91064 6.33145 5.85082 6.14934 5.92633 5.99978C5.94661 5.95952 6.43388 5.01192 7.32937 4.60979C8.23698 4.2029 9.18235 4.52302 9.2219 4.53665C9.35944 4.58432 9.44355 4.7235 9.42222 4.86742C9.41407 4.9216 9.21404 6.19967 8.26584 6.62549Z" fill="#FF9040"/>
</svg>
