<svg width="50" height="32" viewBox="0 0 50 32" fill="none" xmlns="http://www.w3.org/2000/svg">
<g id="Group">
<g id="Group_2">
<path id="Vector" d="M6.42554 7.23801C6.62716 7.17643 6.72437 6.95608 6.76433 6.83024C6.84925 6.56339 6.84108 6.22431 6.74214 5.89992C6.64311 5.57554 6.46041 5.28977 6.24091 5.1159C6.15638 5.04876 6.00471 4.95068 5.84218 4.95068C5.80587 4.95068 5.76898 4.95558 5.7321 4.96682C5.41837 5.06259 5.21118 5.63567 5.41559 6.305C5.61981 6.97423 6.11268 7.33368 6.42554 7.23801Z" fill="url(#paint0_linear_2620_63292)"/>
<path id="Vector_2" d="M45.9969 29.8719C43.0773 28.3988 35.1869 24.9724 25.0002 24.9724C14.8134 24.9724 6.92309 28.3988 4.00353 29.8719C3.80891 29.9701 3.6654 30.1382 3.59913 30.3454C3.53304 30.5518 3.55235 30.7712 3.6533 30.9632L4.199 31.9998C4.93442 31.569 6.7132 30.6082 9.4419 29.6398C12.7499 28.4656 18.1344 27.0663 25.0003 27.0663C31.8662 27.0663 37.2504 28.4658 40.5585 29.6398C43.2871 30.6082 45.0658 31.569 45.8014 31.9998L46.3471 30.963C46.448 30.7711 46.4674 30.5517 46.4012 30.3453C46.3351 30.1382 46.1915 29.9701 45.9969 29.8719Z" fill="url(#paint1_linear_2620_63292)"/>
<path id="Vector_3" d="M4.01382 23.6067C3.7804 22.7958 3.04268 22.2648 2.2334 22.2644L3.18927 25.7095C3.89663 25.2863 4.25243 24.4358 4.01382 23.6067Z" fill="url(#paint2_linear_2620_63292)"/>
<path id="Vector_4" d="M43.5739 7.23761C43.8881 7.33358 44.3797 6.97374 44.5839 6.30451C44.7883 5.63528 44.581 5.0622 44.2674 4.96633C44.2306 4.95509 44.1936 4.9502 44.1573 4.9502C43.9947 4.9502 43.8431 5.04827 43.7586 5.11541C43.5391 5.28937 43.3565 5.57515 43.2574 5.89944H43.2573C43.1583 6.22382 43.1501 6.56281 43.2351 6.82975C43.2752 6.95559 43.3724 7.17604 43.5739 7.23761Z" fill="url(#paint3_linear_2620_63292)"/>
<path id="Vector_5" d="M25.0004 4.2613C25.5512 4.2613 26.1649 3.38632 26.1649 2.13065C26.1649 0.874988 25.5512 0 25.0004 0C24.4496 0 23.8359 0.875084 23.8359 2.13065C23.8359 3.38622 24.4496 4.2613 25.0004 4.2613Z" fill="url(#paint4_linear_2620_63292)"/>
<path id="Vector_6" d="M32.0573 17.7334C31.0332 17.7334 30.2002 18.5664 30.2002 19.5905C30.2002 20.6145 31.0332 21.4477 32.0573 21.4477C33.0813 21.4477 33.9144 20.6145 33.9144 19.5905C33.9145 18.5664 33.0813 17.7334 32.0573 17.7334Z" fill="url(#paint5_linear_2620_63292)"/>
<path id="Vector_7" d="M45.1015 18.8725C44.9846 18.9554 44.8332 18.9709 44.702 18.9135C44.5709 18.856 44.4793 18.7341 44.4611 18.5922L43.166 8.57445L36.4966 16.1607C36.4036 16.2666 36.2628 16.3172 36.123 16.2936C35.9839 16.2704 35.8667 16.1768 35.8131 16.0465L33.5074 10.4413L29.4738 14.9651C29.3805 15.0697 29.2399 15.1195 29.1015 15.0959C28.9632 15.0725 28.8466 14.9798 28.7927 14.8503L25 5.73145L21.2073 14.8503C21.1534 14.9798 21.0368 15.0726 20.8985 15.0959C20.7602 15.1194 20.6195 15.0697 20.5262 14.9651L16.4926 10.4413L14.1869 16.0465C14.1333 16.177 14.0161 16.2705 13.877 16.2936C13.7378 16.317 13.5966 16.2665 13.5034 16.1607L6.83358 8.57445L5.53863 18.5922C5.52029 18.7342 5.42893 18.856 5.29772 18.9135C5.1666 18.9709 5.01502 18.9552 4.89822 18.8725L0.40918 15.6897L2.00901 21.4561C3.25996 21.3505 4.44003 22.139 4.79765 23.3812C5.16286 24.6497 4.5625 25.9555 3.41327 26.5178L4.08058 28.9233C7.35565 27.3289 15.1175 24.1567 24.9999 24.1567C34.8824 24.1567 42.644 27.3289 45.9191 28.9233L46.5864 26.5178C45.4372 25.9555 44.837 24.6497 45.2021 23.3812C45.5598 22.139 46.7404 21.3506 47.9907 21.4561L49.5905 15.6898L45.1015 18.8725ZM17.9429 22.2635C16.469 22.2635 15.27 21.0643 15.27 19.5905C15.27 18.1167 16.4691 16.9176 17.9429 16.9176C19.4167 16.9176 20.6158 18.1167 20.6158 19.5905C20.6158 21.0643 19.4167 22.2635 17.9429 22.2635ZM32.0568 22.2635C30.5829 22.2635 29.384 21.0643 29.384 19.5905C29.384 18.1167 30.583 16.9176 32.0568 16.9176C33.5306 16.9176 34.7297 18.1167 34.7297 19.5905C34.7297 21.0643 33.5307 22.2635 32.0568 22.2635Z" fill="url(#paint6_linear_2620_63292)"/>
<path id="Vector_8" d="M17.943 17.7334C16.9189 17.7334 16.0859 18.5664 16.0859 19.5905C16.0859 20.6145 16.9189 21.4477 17.943 21.4477C18.9671 21.4477 19.8001 20.6145 19.8001 19.5905C19.8001 18.5664 18.967 17.7334 17.943 17.7334Z" fill="url(#paint7_linear_2620_63292)"/>
<path id="Vector_9" d="M45.986 23.6067C45.7474 24.4357 46.1033 25.2863 46.8106 25.7096L47.7665 22.2644C46.9572 22.2646 46.2195 22.7959 45.986 23.6067Z" fill="url(#paint8_linear_2620_63292)"/>
</g>
</g>
<defs>
<linearGradient id="paint0_linear_2620_63292" x1="5.85504" y1="7.22617" x2="8.24794" y2="6.06583" gradientUnits="userSpaceOnUse">
<stop offset="0.300349" stop-color="#FF9900"/>
<stop offset="0.428424" stop-color="#F9AC39"/>
</linearGradient>
<linearGradient id="paint1_linear_2620_63292" x1="18.5688" y1="31.9171" x2="22.4482" y2="14.163" gradientUnits="userSpaceOnUse">
<stop offset="0.300349" stop-color="#FF9900"/>
<stop offset="0.428424" stop-color="#F9AC39"/>
</linearGradient>
<linearGradient id="paint2_linear_2620_63292" x1="2.88245" y1="25.669" x2="6.0481" y2="24.391" gradientUnits="userSpaceOnUse">
<stop offset="0.300349" stop-color="#FF9900"/>
<stop offset="0.428424" stop-color="#F9AC39"/>
</linearGradient>
<linearGradient id="paint3_linear_2620_63292" x1="43.6978" y1="7.22585" x2="46.0909" y2="6.06549" gradientUnits="userSpaceOnUse">
<stop offset="0.300349" stop-color="#FF9900"/>
<stop offset="0.428424" stop-color="#F9AC39"/>
</linearGradient>
<linearGradient id="paint4_linear_2620_63292" x1="24.6511" y1="4.21117" x2="28.6098" y2="2.58838" gradientUnits="userSpaceOnUse">
<stop offset="0.300349" stop-color="#FF9900"/>
<stop offset="0.428424" stop-color="#F9AC39"/>
</linearGradient>
<linearGradient id="paint5_linear_2620_63292" x1="31.5002" y1="21.404" x2="36.2195" y2="17.8644" gradientUnits="userSpaceOnUse">
<stop offset="0.300349" stop-color="#FF9900"/>
<stop offset="0.428424" stop-color="#F9AC39"/>
</linearGradient>
<linearGradient id="paint6_linear_2620_63292" x1="17.6233" y1="28.6504" x2="45.2858" y2="-15.3478" gradientUnits="userSpaceOnUse">
<stop offset="0.300349" stop-color="#FF9900"/>
<stop offset="0.428424" stop-color="#F9AC39"/>
</linearGradient>
<linearGradient id="paint7_linear_2620_63292" x1="17.3859" y1="21.404" x2="22.1053" y2="17.8644" gradientUnits="userSpaceOnUse">
<stop offset="0.300349" stop-color="#FF9900"/>
<stop offset="0.428424" stop-color="#F9AC39"/>
</linearGradient>
<linearGradient id="paint8_linear_2620_63292" x1="46.5612" y1="25.6691" x2="49.7268" y2="24.3911" gradientUnits="userSpaceOnUse">
<stop offset="0.300349" stop-color="#FF9900"/>
<stop offset="0.428424" stop-color="#F9AC39"/>
</linearGradient>
</defs>
</svg>
