<svg id="Artwork" height="512" viewBox="0 0 24 24" width="512" xmlns="http://www.w3.org/2000/svg" xmlns:xlink="http://www.w3.org/1999/xlink"><linearGradient id="linear-gradient" gradientUnits="userSpaceOnUse" x1="12" x2="12" y1="2.833" y2="21.374"><stop offset="0" stop-color="#faee5e"/><stop offset="1" stop-color="#edc12d"/></linearGradient><linearGradient id="linear-gradient-2" gradientUnits="userSpaceOnUse" x1="12" x2="12" y1="4.926" y2="18.952"><stop offset="0" stop-color="#efc938"/><stop offset="1" stop-color="#f1b62e"/></linearGradient><circle cx="12" cy="12" fill="#f1d33d" r="10"/><path d="m12 22a10 10 0 0 0 10-10h-20a10 10 0 0 0 10 10z" fill="#e7a324"/><circle cx="12" cy="12.129" fill="url(#linear-gradient)" r="9.218"/><path d="m12 21.344a9.216 9.216 0 0 1 -9.214-9.144v.077a9.3 9.3 0 0 0 9.214 9.37 9.3 9.3 0 0 0 9.218-9.369c0-.026 0-.051 0-.077a9.216 9.216 0 0 1 -9.218 9.143z" fill="#d38e26"/><circle cx="12" cy="12" fill="#f9ee60" r="7.6"/><path d="m12 4.4a7.6 7.6 0 0 0 -7.6 7.6h15.2a7.6 7.6 0 0 0 -7.6-7.6z" fill="#e3a22c"/><circle cx="12" cy="12" fill="url(#linear-gradient-2)" r="7"/><path d="m14.406 11.625c.019-.01.038-.02.056-.031a1.62 1.62 0 0 0 .11-2.511 2.792 2.792 0 0 0 -.958-.416l-.75-.125v-1.542h-.833v1.5h-.75v-1.5h-.917v1.5h-1.833v.958h.708a.51.51 0 0 1 .417.542c0 1.292-.042 2.625-.042 3.917 0 .291-.125.416-.417.416h-.625a9.853 9.853 0 0 1 -.208 1.084c.625 0 1.208 0 1.833.041v1.542h1v-1.542a4.493 4.493 0 0 1 .75.042v1.5h.917v-1.542h.083c.417-.083.875-.125 1.292-.208a1.635 1.635 0 0 0 1.208-1 2.415 2.415 0 0 0 .167-1.333 1.235 1.235 0 0 0 -.667-1c-.138-.069-.3-.138-.476-.208l-.071-.028-.026-.008-.028-.009.033-.021zm-3.125-2.042a3.507 3.507 0 0 1 1.625.209.792.792 0 0 1 -.084 1.5 4.048 4.048 0 0 1 -1.583.125c.042-.625.042-1.209.042-1.834zm2 4.542a5.059 5.059 0 0 1 -1.584.25h-.458c0-.667 0-1.333.042-2.042a4.85 4.85 0 0 1 2.041.25.855.855 0 0 1 .542.792.8.8 0 0 1 -.583.75z" fill="#fff"/></svg>