<svg width="16" height="18" viewBox="0 0 16 18" fill="none" xmlns="http://www.w3.org/2000/svg">
<path d="M0 5.72359V9.11241L3.09287 10.8983V7.32539L0.0118192 5.54688C0.00401853 5.60503 0 5.66405 0 5.72359Z" fill="#FCA31E"/>
<path d="M4.10583 11.4833L7.20182 13.2709V9.69732L4.10583 7.91016V11.4833Z" fill="#FCA31E"/>
<path d="M7.70818 5.24609L4.61267 7.03278L7.70818 8.81967L10.8037 7.03278L7.70818 5.24609Z" fill="#FCA31E"/>
<path d="M8.21472 13.2709L11.3107 11.4833V7.91016L8.21472 9.69732V13.2709Z" fill="#FCA31E"/>
<path d="M15.4049 5.54688L12.3239 7.32539V10.8983L15.4167 9.11241V5.72359C15.4168 5.66405 15.4127 5.60503 15.4049 5.54688Z" fill="#FCA31E"/>
<path d="M14.7504 4.56912C14.0412 4.1593 12.9473 3.52741 11.8171 2.87476L8.72156 4.66148L11.817 6.44816L14.8992 4.66897C14.8522 4.63264 14.8026 4.59917 14.7504 4.56912Z" fill="#FCA31E"/>
<path d="M10.804 2.28972C9.88467 1.75894 9.01092 1.25463 8.37519 0.887999C8.16957 0.76947 7.93896 0.710205 7.70835 0.710205C7.47771 0.710205 7.24707 0.76947 7.04134 0.888067C6.41962 1.24734 5.54342 1.7532 4.61328 2.29009L7.70832 4.07654L10.804 2.28972Z" fill="#FCA31E"/>
<path d="M3.60031 2.875C2.48802 3.51705 1.40073 4.14472 0.666926 4.56875C0.61455 4.59894 0.564808 4.63251 0.5177 4.66898L3.59984 6.44814L6.69531 4.66145L3.60031 2.875Z" fill="#FCA31E"/>
<path d="M0 13.0861C0 13.5613 0.255328 14.0036 0.666297 14.2405L0.666804 14.2408C1.28839 14.6 2.16365 15.1054 3.09287 15.6417V12.0681L0 10.2822V13.0861Z" fill="#FCA31E"/>
<path d="M4.10583 16.2263C5.21903 16.8689 6.30748 17.4972 7.04185 17.9215C7.09372 17.9514 7.14718 17.9775 7.20182 17.9999V14.4405L4.10583 12.6528V16.2263Z" fill="#FCA31E"/>
<path d="M8.21472 17.9998C8.26953 17.9774 8.32315 17.9513 8.37516 17.9213C9.12689 17.4877 10.2115 16.8617 11.3107 16.227V12.6528L8.21472 14.4405V17.9998Z" fill="#FCA31E"/>
<path d="M12.3239 15.6423C13.2678 15.0972 14.1477 14.5889 14.7499 14.2408C15.1614 14.0037 15.4168 13.5613 15.4168 13.0861V10.2822L12.3239 12.0681V15.6423H12.3239Z" fill="#FCA31E"/>
</svg>
