<svg width="17" height="23" viewBox="0 0 17 23" fill="none" xmlns="http://www.w3.org/2000/svg">
<path d="M14.9853 8.7295C14.9216 8.65178 14.8444 8.66706 14.8039 8.68291C14.77 8.6963 14.6924 8.73907 14.7031 8.84625C14.716 8.97495 14.7233 9.10617 14.7247 9.23631C14.7304 9.77617 14.5081 10.3051 14.1147 10.6874C13.7238 11.0673 13.2096 11.2719 12.6622 11.266C11.9144 11.2567 11.2942 10.8768 10.8686 10.1674C10.5166 9.58072 10.6713 8.8241 10.8351 8.02302C10.9309 7.55412 11.03 7.06924 11.03 6.60776C11.03 3.01452 8.55001 0.941469 7.07171 0.0255604C7.04113 0.00664841 7.01203 0 6.98625 0C6.94432 0 6.91112 0.0176093 6.89475 0.0283905C6.86302 0.049324 6.81224 0.0970309 6.82856 0.181484C7.39362 3.10418 5.70823 4.86201 3.92388 6.72303C2.08464 8.64132 0 10.8156 0 14.7369C0 19.2932 3.80563 23 8.48342 23C12.3349 23 15.7307 20.3845 16.7413 16.6395C17.4304 14.0861 16.7083 10.8334 14.9853 8.7295ZM8.69506 21.2362C7.52372 21.2883 6.40976 20.8791 5.5589 20.0866C4.71718 19.3027 4.2344 18.2086 4.2344 17.0849C4.2344 14.9763 5.06215 13.4283 7.28851 11.3732C7.32495 11.3395 7.36226 11.3289 7.39477 11.3289C7.42424 11.3289 7.44979 11.3377 7.46736 11.3459C7.5044 11.3633 7.56528 11.4063 7.55707 11.4994C7.47746 12.4016 7.47885 13.1505 7.56112 13.7253C7.77143 15.1936 8.87492 16.1801 10.3072 16.1801C11.0094 16.1801 11.6782 15.9227 12.1906 15.4553C12.25 15.401 12.3164 15.408 12.3419 15.4132C12.3756 15.4203 12.4208 15.4404 12.4444 15.496C12.6568 15.9956 12.7654 16.5259 12.7671 17.0721C12.7739 19.2699 10.9472 21.138 8.69506 21.2362Z" fill="black"/>
<path d="M14.9853 8.7295C14.9216 8.65178 14.8444 8.66706 14.8039 8.68291C14.77 8.6963 14.6924 8.73907 14.7031 8.84625C14.716 8.97495 14.7233 9.10617 14.7247 9.23631C14.7304 9.77617 14.5081 10.3051 14.1147 10.6874C13.7238 11.0673 13.2096 11.2719 12.6622 11.266C11.9144 11.2567 11.2942 10.8768 10.8686 10.1674C10.5166 9.58072 10.6713 8.8241 10.8351 8.02302C10.9309 7.55412 11.03 7.06924 11.03 6.60776C11.03 3.01452 8.55001 0.941469 7.07171 0.0255604C7.04113 0.00664841 7.01203 0 6.98625 0C6.94432 0 6.91112 0.0176093 6.89475 0.0283905C6.86302 0.049324 6.81224 0.0970309 6.82856 0.181484C7.39362 3.10418 5.70823 4.86201 3.92388 6.72303C2.08464 8.64132 0 10.8156 0 14.7369C0 19.2932 3.80563 23 8.48342 23C12.3349 23 15.7307 20.3845 16.7413 16.6395C17.4304 14.0861 16.7083 10.8334 14.9853 8.7295ZM8.69506 21.2362C7.52372 21.2883 6.40976 20.8791 5.5589 20.0866C4.71718 19.3027 4.2344 18.2086 4.2344 17.0849C4.2344 14.9763 5.06215 13.4283 7.28851 11.3732C7.32495 11.3395 7.36226 11.3289 7.39477 11.3289C7.42424 11.3289 7.44979 11.3377 7.46736 11.3459C7.5044 11.3633 7.56528 11.4063 7.55707 11.4994C7.47746 12.4016 7.47885 13.1505 7.56112 13.7253C7.77143 15.1936 8.87492 16.1801 10.3072 16.1801C11.0094 16.1801 11.6782 15.9227 12.1906 15.4553C12.25 15.401 12.3164 15.408 12.3419 15.4132C12.3756 15.4203 12.4208 15.4404 12.4444 15.496C12.6568 15.9956 12.7654 16.5259 12.7671 17.0721C12.7739 19.2699 10.9472 21.138 8.69506 21.2362Z" fill="url(#paint0_linear_5804_165467)"/>
<defs>
<linearGradient id="paint0_linear_5804_165467" x1="5.95022" y1="22.7294" x2="31.7673" y2="8.41719" gradientUnits="userSpaceOnUse">
<stop offset="0.300349" stop-color="#FF9900"/>
<stop offset="0.428424" stop-color="#F9AC39"/>
</linearGradient>
</defs>
</svg>
