<svg width="18" height="18" viewBox="0 0 18 18" fill="none" xmlns="http://www.w3.org/2000/svg">
<g id="Group 1443">
<g id="Group">
<path id="Vector" d="M9.99312 0.48295L9.86958 0.359411C9.3325 -0.177602 8.48302 -0.0930861 8.0083 0.481298L9.00112 1.47485L9.99312 0.48295Z" fill="url(#paint0_linear_2193_52865)"/>
<path id="Vector_2" d="M17.8454 11.8122L16.6983 10.6653C15.9146 11.4492 14.2222 13.1419 12.892 14.4714C12.2589 15.1047 11.5261 15.61 10.7117 15.976L12.1975 17.4616C12.4035 17.6675 12.7374 17.6674 12.9433 17.4615L17.8455 12.558C18.0514 12.352 18.0514 12.0181 17.8454 11.8122Z" fill="url(#paint1_linear_2193_52865)"/>
<path id="Vector_3" d="M16.3871 9.48509C17.4944 8.29146 15.8441 6.63866 14.6509 7.7471L15.0842 7.31229C16.1915 6.11754 14.5415 4.4659 13.3449 5.5743L13.7813 5.13949C14.8896 3.94372 13.2364 2.29303 12.0421 3.40119L12.4784 2.96669C13.5873 1.77029 11.9318 0.120612 10.7392 1.22842L9.74662 2.22092L10.6156 3.09051C11.889 4.33058 11.2271 6.58238 9.49023 6.93644C9.32562 7.76732 8.59571 8.5068 7.75428 8.6739C7.58964 9.50636 6.85846 10.2464 6.01492 10.4127C5.65348 12.1489 3.42193 12.8127 2.16973 11.5344C2.16973 11.5344 1.30137 10.6654 1.30137 10.6654L0.154468 11.8122C-0.0515128 12.0182 -0.0514776 12.3521 0.154503 12.5581L5.05944 17.4617C5.26542 17.6676 5.59934 17.6675 5.80525 17.4615L7.69708 15.5689C9.36563 15.5689 10.9666 14.9058 12.1465 13.7255C13.938 11.935 16.3871 9.48509 16.3871 9.48509Z" fill="url(#paint2_linear_2193_52865)"/>
<path id="Vector_4" d="M2.91586 10.7888C4.11124 11.8974 5.76295 10.2453 4.65507 9.05058C5.85053 10.159 7.50217 8.50706 6.39429 7.31228C7.58876 8.42118 9.23735 6.76662 8.13045 5.57429C9.32429 6.68231 10.9782 5.03193 9.86963 3.83599L7.26388 1.22841C6.78147 0.748734 6.00402 0.748734 5.5247 1.22841C5.04531 1.70808 5.04531 2.48704 5.5247 2.96671L5.95793 3.40121C4.76518 2.29196 3.10904 3.94933 4.22181 5.13951L4.65504 5.57429C3.46018 4.46535 1.80783 6.11763 2.91586 7.31228L3.32553 7.72174C2.11883 6.66301 0.518089 8.30776 1.61293 9.48508C1.61296 9.48504 2.91586 10.7888 2.91586 10.7888Z" fill="url(#paint3_linear_2193_52865)"/>
</g>
</g>
<defs>
<linearGradient id="paint0_linear_2193_52865" x1="8.70301" y1="1.4575" x2="10.6549" y2="-0.51272" gradientUnits="userSpaceOnUse">
<stop offset="0.300349" stop-color="#FF9900"/>
<stop offset="0.428424" stop-color="#F9AC39"/>
</linearGradient>
<linearGradient id="paint1_linear_2193_52865" x1="13.2626" y1="17.5342" x2="22.2029" y2="10.5031" gradientUnits="userSpaceOnUse">
<stop offset="0.300349" stop-color="#FF9900"/>
<stop offset="0.428424" stop-color="#F9AC39"/>
</linearGradient>
<linearGradient id="paint2_linear_2193_52865" x1="5.86363" y1="17.419" x2="27.1504" y2="1.45412" gradientUnits="userSpaceOnUse">
<stop offset="0.300349" stop-color="#FF9900"/>
<stop offset="0.428424" stop-color="#F9AC39"/>
</linearGradient>
<linearGradient id="paint3_linear_2193_52865" x1="4.39341" y1="11.0338" x2="16.8762" y2="2.85305" gradientUnits="userSpaceOnUse">
<stop offset="0.300349" stop-color="#FF9900"/>
<stop offset="0.428424" stop-color="#F9AC39"/>
</linearGradient>
</defs>
</svg>
