<svg width="12" height="13" viewBox="0 0 12 13" fill="none" xmlns="http://www.w3.org/2000/svg">
<path d="M12.0001 6.14308C12.0001 2.84753 9.38604 0.175903 6.16129 0.175903C2.93653 0.175903 0.322266 2.84753 0.322266 6.14308C0.322266 9.43863 2.93653 12.1103 6.16129 12.1103C9.38604 12.1103 12.0001 9.43863 12.0001 6.14308Z" fill="#FC4747"/>
<path d="M7.72783 0.393555C9.21689 1.47489 10.1883 3.25202 10.1883 5.26108C10.1883 8.55662 7.57422 11.2283 4.34946 11.2283C3.80663 11.2283 3.2813 11.1524 2.78271 11.0106C3.73622 11.7032 4.90213 12.1103 6.16108 12.1103C9.38564 12.1103 11.9999 9.43864 11.9999 6.1431C11.9999 3.40221 10.1916 1.09337 7.72783 0.393555Z" fill="#CC2B2B"/>
</svg>
