<svg width="14" height="15" viewBox="0 0 14 15" fill="none" xmlns="http://www.w3.org/2000/svg">
<g id="Group 1446">
<g id="Group">
<path id="Vector" d="M7.77251 1.3329L7.67642 1.23682C7.25869 0.819141 6.59798 0.884875 6.22876 1.33162L7.00095 2.10438L7.77251 1.3329Z" fill="#59E878"/>
<path id="Vector_2" d="M13.8798 10.1447L12.9875 9.25269C12.378 9.86242 11.0617 11.1789 10.0271 12.213C9.53467 12.7055 8.96472 13.0986 8.3313 13.3833L9.48696 14.5387C9.64716 14.6988 9.90685 14.6988 10.067 14.5386L13.8798 10.7248C14.04 10.5646 14.04 10.3049 13.8798 10.1447Z" fill="#59E878"/>
<path id="Vector_3" d="M12.7455 8.33459C13.6067 7.40621 12.3232 6.1207 11.3951 6.98282L11.7321 6.64464C12.5934 5.71538 11.31 4.43077 10.3794 5.29287L10.7188 4.95468C11.5808 4.02464 10.2949 2.74077 9.36605 3.60267L9.70544 3.26473C10.5679 2.33419 9.28025 1.05111 8.35269 1.91274L7.5807 2.68468L8.25655 3.36103C9.24703 4.32553 8.73217 6.07692 7.38128 6.3523C7.25326 6.99855 6.68554 7.5737 6.0311 7.70366C5.90305 8.35113 5.33435 8.92672 4.67827 9.05608C4.39714 10.4065 2.6615 10.9228 1.68757 9.92846C1.68757 9.92849 1.01218 9.25263 1.01218 9.25263L0.120142 10.1446C-0.0400655 10.3048 -0.0400381 10.5645 0.120169 10.7247L3.93512 14.5386C4.09532 14.6987 4.35504 14.6987 4.51519 14.5385L5.98661 13.0665C7.28437 13.0665 8.52955 12.5507 9.44729 11.6327C10.8407 10.2401 12.7455 8.33459 12.7455 8.33459Z" fill="#59E878"/>
<path id="Vector_4" d="M2.26778 9.34876C3.19752 10.2109 4.48219 8.92602 3.6205 7.99677C4.5503 8.85889 5.83491 7.57404 4.97323 6.64476C5.90226 7.50724 7.18449 6.22036 6.32357 5.29299C7.25211 6.15479 8.53847 4.87116 7.67627 3.94098L5.64957 1.91287C5.27436 1.53979 4.66968 1.53979 4.29688 1.91287C3.92402 2.28594 3.92402 2.8918 4.29688 3.26488L4.63383 3.60282C3.70614 2.74007 2.41803 4.02914 3.28352 4.95483L3.62047 5.29299C2.69114 4.43049 1.40598 5.71559 2.26778 6.64476L2.58641 6.96323C1.64787 6.13977 0.40285 7.41903 1.25439 8.33471C1.25442 8.33469 2.26778 9.34876 2.26778 9.34876Z" fill="#59E878"/>
</g>
</g>
</svg>
