<svg width="12" height="12" viewBox="0 0 12 12" fill="none" xmlns="http://www.w3.org/2000/svg">
<path d="M9.63281 0.205811V2.34373H11.7706L9.63281 0.205811Z" fill="#ADA3EF"/>
<path d="M9.28125 3.04688C9.08709 3.04688 8.92969 2.88947 8.92969 2.69531V0H3.89062C3.30907 0 2.83594 0.473133 2.83594 1.05469V4.9849C2.95177 4.9744 3.06898 4.96875 3.1875 4.96875C4.38581 4.96875 5.45852 5.51662 6.16842 6.375H9.98438C10.1785 6.375 10.3359 6.53241 10.3359 6.72656C10.3359 6.92072 10.1785 7.07812 9.98438 7.07812H6.63159C6.85134 7.50694 6.99305 7.98199 7.03854 8.48438H9.98438C10.1785 8.48438 10.3359 8.64178 10.3359 8.83594C10.3359 9.03009 10.1785 9.1875 9.98438 9.1875H7.03854C6.9334 10.3486 6.31305 11.3631 5.40839 12H10.9219C11.5034 12 11.9766 11.5269 11.9766 10.9453V3.04688H9.28125ZM9.98438 4.96875H4.82812C4.63397 4.96875 4.47656 4.81134 4.47656 4.61719C4.47656 4.42303 4.63397 4.26562 4.82812 4.26562H9.98438C10.1785 4.26562 10.3359 4.42303 10.3359 4.61719C10.3359 4.81134 10.1785 4.96875 9.98438 4.96875Z" fill="#ADA3EF"/>
<path d="M3.1875 5.67188C1.44284 5.67188 0.0234375 7.09127 0.0234375 8.83594C0.0234375 10.5806 1.44284 12 3.1875 12C4.93216 12 6.35156 10.5806 6.35156 8.83594C6.35156 7.09127 4.93216 5.67188 3.1875 5.67188ZM4.125 9.1875H3.1875C2.99334 9.1875 2.83594 9.03009 2.83594 8.83594V7.42969C2.83594 7.23553 2.99334 7.07812 3.1875 7.07812C3.38166 7.07812 3.53906 7.23553 3.53906 7.42969V8.48438H4.125C4.31916 8.48438 4.47656 8.64178 4.47656 8.83594C4.47656 9.03009 4.31916 9.1875 4.125 9.1875Z" fill="#ADA3EF"/>
</svg>
