<svg width="18" height="16" viewBox="0 0 18 16" fill="none" xmlns="http://www.w3.org/2000/svg">
<path d="M2.3541 14.9547C2.3541 14.9547 2.33835 15.3418 2.71692 15.3418C3.18801 15.3418 7.08136 15.3366 7.08136 15.3366L7.08792 11.7601C7.08792 11.7601 7.02625 11.1709 7.59772 11.1709H9.40924C10.0857 11.1709 10.0444 11.7601 10.0444 11.7601L10.0365 15.3254C10.0365 15.3254 13.7291 15.3254 14.3091 15.3254C14.7893 15.3254 14.7677 14.8438 14.7677 14.8438V8.24864L8.74591 2.89282L2.3541 8.2493V14.9547Z" fill="white"/>
<path d="M0 7.75062C0 7.75062 0.541946 8.75053 1.72622 7.75062L8.79973 1.76625L15.431 7.71322C16.801 8.70132 17.3147 7.71322 17.3147 7.71322L8.79973 0L0 7.75062Z" fill="white"/>
<path d="M15.2697 1.75256H13.5645L13.5717 3.82127L15.2697 5.26275V1.75256Z" fill="white"/>
</svg>
