<svg width="18" height="18" viewBox="0 0 18 18" fill="none" xmlns="http://www.w3.org/2000/svg">
<path d="M2.56741 2.62991C2.08002 3.1173 1.98446 3.84955 2.27964 4.43313C0.0776497 7.62763 0.452157 11.9922 3.23007 14.77C5.55 17.09 9.00054 17.7732 12.0119 16.5571L12.151 16.5009L12.0948 16.3618L11.7439 15.4928L11.6877 15.3538L11.5486 15.4099C8.98282 16.4461 6.06124 15.8516 4.10486 13.8952C1.77626 11.5666 1.44047 7.92269 3.23818 5.2247C3.7736 5.37795 4.36082 5.23675 4.76755 4.83005L4.76756 4.83004C5.37418 4.22339 5.37417 3.2366 4.76756 2.62991L4.76756 2.62991C4.1609 2.02322 3.17407 2.02322 2.56741 2.62991ZM2.56741 2.62991L2.67348 2.73597M2.56741 2.62991C2.56741 2.62991 2.56741 2.62991 2.56741 2.62991L2.67348 2.73597M2.67348 2.73597C2.21149 3.19796 2.13896 3.90413 2.45578 4.44284M2.67348 2.73597C3.22155 2.18786 4.11341 2.18786 4.66149 2.73597C5.20953 3.28408 5.20953 4.1759 4.66149 4.72398L2.45578 4.44284M2.45578 4.44284C0.236322 7.58439 0.58766 11.9155 3.33614 14.664C5.57749 16.9053 8.89372 17.5903 11.8161 16.4728L11.8166 16.4741L11.9556 16.418C11.9556 16.418 11.9557 16.418 11.9557 16.418L11.8995 16.2789L11.6609 15.6881L11.6048 15.549C8.98319 16.6077 5.99774 16.0003 3.9988 14.0013C1.5921 11.5946 1.26859 7.81311 3.17741 5.04705L2.45578 4.44284ZM3.8927 3.5047L3.89269 3.50469C3.76861 3.38059 3.56627 3.38061 3.44218 3.50469C3.44218 3.50469 3.44217 3.50469 3.44217 3.5047M3.8927 3.5047L3.99876 3.39863C4.18148 3.58134 4.18148 3.87861 3.99876 4.06129C3.81605 4.24404 3.51879 4.244 3.33607 4.06129C3.15336 3.87858 3.15342 3.58134 3.33611 3.39863L3.44217 3.5047M3.8927 3.5047C4.01684 3.62884 4.01683 3.83112 3.89271 3.95522L3.89269 3.95523C3.76857 4.07938 3.56629 4.07937 3.44214 3.95522C3.31803 3.83112 3.31804 3.62886 3.44217 3.5047M3.8927 3.5047H3.44217" fill="#FCA31E" stroke="#FCA31E" stroke-width="0.3"/>
<path d="M5.84918 1.49927L5.98826 1.4431C9.01492 0.220731 12.4622 0.922184 14.7701 3.23012C17.548 6.008 17.9225 10.3725 15.7205 13.567C16.0157 14.1506 15.9201 14.8828 15.4327 15.3702C14.826 15.9769 13.8392 15.9769 13.2326 15.3702C12.6259 14.7636 12.6259 13.7768 13.2326 13.1701L5.84918 1.49927ZM5.84918 1.49927L5.90535 1.63836L6.25628 2.50731L6.31245 2.6464L6.45154 2.59023C9.01723 1.55397 11.9389 2.14853 13.8953 4.10491C16.2239 6.43352 16.5596 10.0775 14.7619 12.7755L5.84918 1.49927ZM14.1074 14.0449L14.1074 14.0449C13.9833 14.169 13.9833 14.3713 14.1074 14.4954C14.1074 14.4954 14.1074 14.4954 14.1074 14.4954M14.1074 14.0449L14.664 14.6015C14.4813 14.7842 14.1841 14.7842 14.0013 14.6015L14.1074 14.4954M14.1074 14.0449C14.2315 13.9208 14.4339 13.9208 14.558 14.0449L14.558 14.0449C14.6821 14.169 14.6821 14.3713 14.558 14.4954L14.558 14.4954C14.4338 14.6196 14.2316 14.6195 14.1074 14.4954M14.1074 14.0449L14.1074 14.4954" fill="#FCA31E" stroke="#FCA31E" stroke-width="0.3"/>
<path d="M8.99999 5.47009C7.05332 5.47009 5.46997 7.05344 5.46997 9.00013C5.46997 10.9468 7.05332 12.5302 8.99999 12.5302C10.9467 12.5302 12.53 10.9468 12.53 9.00013C12.53 7.05344 10.9467 5.47009 8.99999 5.47009ZM8.99999 11.093C7.8462 11.093 6.90712 10.1539 6.90712 9.00013C6.90712 7.84633 7.8462 6.90725 8.99999 6.90725C10.1538 6.90725 11.0929 7.84633 11.0929 9.00013C11.0929 10.1539 10.1538 11.093 8.99999 11.093Z" fill="#FCA31E" stroke="#FCA31E" stroke-width="0.5"/>
</svg>
