<svg width="158" height="118" viewBox="0 0 158 118" fill="none" xmlns="http://www.w3.org/2000/svg">
<g id="Group 978">
<path id="Path 35" d="M73.906 117.246C73.354 116.547 72.7991 115.85 72.2514 115.148C70.1788 112.487 68.1082 109.824 66.0398 107.16C65.7068 106.732 65.7417 106.883 65.9777 106.422C66.8016 104.816 67.6376 103.215 68.4567 101.606C68.4902 101.517 68.5527 101.442 68.6339 101.393C68.7152 101.344 68.8106 101.323 68.905 101.334C70.0483 101.346 71.1925 101.34 72.3357 101.34C72.4278 101.34 72.5189 101.34 72.6105 101.337C72.6277 101.338 72.645 101.336 72.6612 101.33C72.6775 101.324 72.6921 101.315 72.7043 101.302C72.7164 101.29 72.7256 101.275 72.7313 101.259C72.7369 101.243 72.7389 101.225 72.737 101.208C72.737 101.128 72.7399 101.048 72.7399 100.966V92.0831C72.7374 92.0374 72.7374 91.9916 72.7399 91.946C72.7637 91.7594 72.6701 91.7036 72.5005 91.7187C72.4094 91.7269 72.3173 91.7187 72.2257 91.7187C67.9709 91.7187 63.7162 91.7211 59.4618 91.7259C59.3406 91.739 59.2184 91.7138 59.1124 91.6537C59.0064 91.5936 58.922 91.5017 58.871 91.391C56.6785 87.5356 54.4814 83.6838 52.2799 79.8355C52.2314 79.7483 52.1888 79.6552 52.1301 79.5413C52.2641 79.5017 52.4048 79.4897 52.5435 79.5059C56.3751 79.5059 60.2065 79.5059 64.0377 79.5059C64.5529 79.5059 64.4957 79.5728 64.4957 79.0523C64.4957 57.8394 64.4943 36.6266 64.4913 15.4139C64.4849 15.2801 64.5069 15.1465 64.556 15.0218C64.605 14.8972 64.68 14.7844 64.7758 14.6909C67.831 11.5046 70.88 8.31294 73.9229 5.11599C75.4702 3.49409 77.0159 1.8709 78.56 0.246413C78.5992 0.204735 78.638 0.16257 78.6787 0.12283C78.8416 -0.0380678 78.8454 -0.0409747 79.0005 0.114592C79.1944 0.308445 79.3824 0.508608 79.5719 0.707307C81.9075 3.15696 84.2432 5.60659 86.5788 8.05624C88.7413 10.3243 90.9041 12.5918 93.0672 14.8585C93.1311 14.9215 93.181 14.9972 93.2138 15.0806C93.2466 15.1641 93.2616 15.2536 93.2576 15.3432C93.2518 17.4587 93.2505 19.575 93.2538 21.6918C93.2538 40.8005 93.2538 59.9092 93.2538 79.0179C93.2538 79.5835 93.1787 79.5079 93.7428 79.5084C97.4374 79.5106 101.132 79.5106 104.826 79.5084H105.214C105.24 79.661 105.141 79.7536 105.083 79.8554C103.964 81.822 102.842 83.7874 101.718 85.7514C100.646 87.6269 99.5696 89.5 98.5082 91.3814C98.4607 91.4936 98.3788 91.5878 98.2743 91.6505C98.1698 91.7132 98.0481 91.7412 97.9267 91.7303C93.7407 91.7193 89.5548 91.717 85.3692 91.7235C84.8913 91.7235 84.9407 91.6692 84.9407 92.1364C84.9407 95.0642 84.9407 97.9919 84.9407 100.919C84.9407 100.999 84.9451 101.079 84.9407 101.162C84.9339 101.292 84.9892 101.347 85.1215 101.345C85.3847 101.341 85.6478 101.345 85.9105 101.345C86.8488 101.345 87.7861 101.351 88.7243 101.341C88.8078 101.332 88.8918 101.351 88.964 101.394C89.0361 101.437 89.0926 101.502 89.1251 101.579C90.0217 103.238 90.9264 104.893 91.8391 106.544C91.8967 106.625 91.9235 106.725 91.9146 106.824C91.9057 106.924 91.8618 107.017 91.7907 107.087C89.2469 110.381 86.7071 113.677 84.1712 116.977C84.0917 117.08 83.9627 117.163 83.9904 117.324H83.8532C83.7398 117.205 83.5944 117.257 83.4655 117.257C80.2759 117.25 77.0894 117.246 73.906 117.246Z" fill="url(#paint0_linear_1416_46111)"/>
<path id="Path 36" d="M117.955 117.319C118.02 117.191 117.907 117.131 117.849 117.06C116.902 115.944 115.953 114.829 115.003 113.716L109.312 107.028C108.734 106.35 108.158 105.668 107.578 104.993C107.281 104.647 107.312 104.702 107.498 104.345C109.183 101.126 110.87 97.9068 112.559 94.6882C114.945 90.1327 117.332 85.5771 119.719 81.0216C120.515 79.5031 121.311 77.9846 122.109 76.4661C122.252 76.1947 122.254 76.1942 122.04 75.9703C120.801 74.6715 119.562 73.3723 118.323 72.0729C115.263 68.8598 112.202 65.6473 109.141 62.4355C109.076 62.3651 109.028 62.2819 108.998 62.1913C108.968 62.1008 108.958 62.005 108.968 61.9102C108.968 57.9872 108.968 54.0646 108.968 50.1424V25.7169C109.097 25.6753 109.136 25.7838 109.191 25.842C110.795 27.5204 112.397 29.2005 113.997 30.8821C115.306 32.2566 116.615 33.6313 117.923 35.0064C120.659 37.8818 123.396 40.7559 126.132 43.6284C127.89 45.4749 129.648 47.322 131.406 49.1697C134.197 52.1017 136.989 55.0333 139.781 57.9643L146.475 64.9963C149.203 67.8624 151.932 70.7281 154.66 73.5932C155.401 74.3718 156.142 75.1511 156.882 75.931C157.13 76.1918 157.131 76.1918 156.89 76.4452L151.283 82.334L143.005 91.0259L136.287 98.0821L128.055 106.729C125.807 109.087 123.56 111.448 121.313 113.81C120.288 114.887 119.265 115.966 118.244 117.046C118.174 117.119 118.032 117.167 118.092 117.318L117.955 117.319Z" fill="url(#paint1_linear_1416_46111)"/>
<path id="Path 37" d="M39.652 117.318C39.7111 117.24 39.6476 117.192 39.6035 117.144C39.4494 116.975 39.2935 116.808 39.1359 116.642C37.0454 114.449 34.9545 112.256 32.8632 110.062C30.6067 107.694 28.3513 105.325 26.0971 102.956L17.913 94.359L11.1237 87.2277C8.86201 84.8504 6.59904 82.4733 4.3348 80.0963C3.15228 78.8544 1.97041 77.6115 0.789185 76.3676C0.719822 76.3174 0.668771 76.2459 0.643799 76.164C1.20404 75.5742 1.7701 74.9777 2.34004 74.382L11.1905 65.0921C12.9808 63.2121 14.7706 61.332 16.5599 59.452C19.2884 56.5865 22.0167 53.7209 24.7449 50.8551C26.9762 48.5115 29.2077 46.1674 31.4393 43.8231L38.1336 36.7916C40.4676 34.3403 42.8018 31.8889 45.1362 29.4373C46.2476 28.2687 47.3586 27.1001 48.469 25.9315C48.5536 25.821 48.6598 25.729 48.7811 25.6611V26.0294C48.7811 37.9914 48.7829 49.9532 48.7865 61.9149C48.7904 62.021 48.772 62.1267 48.7325 62.2253C48.6929 62.3238 48.633 62.4129 48.5568 62.4868C45.6971 65.4805 42.8412 68.4773 39.9893 71.4772C38.5622 72.9763 37.1365 74.4769 35.7123 75.9789C35.4909 76.2125 35.4962 76.164 35.6561 76.4703C37.4538 79.9025 39.2512 83.3348 41.0482 86.7673C43.4136 91.2827 45.7791 95.7981 48.1448 100.313C48.866 101.69 49.5882 103.066 50.3116 104.442C50.3614 104.508 50.3847 104.591 50.3772 104.673C50.3697 104.756 50.3318 104.832 50.2709 104.889C47.4923 108.14 44.719 111.395 41.9511 114.654C41.2842 115.437 40.615 116.219 39.9525 117.007C39.8793 117.094 39.7426 117.162 39.7901 117.318L39.652 117.318Z" fill="url(#paint2_linear_1416_46111)"/>
<path id="Path 38" d="M73.9064 117.246C77.0905 117.246 80.2744 117.247 83.4582 117.251C83.5895 117.251 83.7345 117.199 83.8459 117.318H73.8967L73.9064 117.246Z" fill="url(#paint3_linear_1416_46111)"/>
</g>
<defs>
<linearGradient id="paint0_linear_1416_46111" x1="70.7116" y1="115.944" x2="165.225" y2="83.8679" gradientUnits="userSpaceOnUse">
<stop offset="0.300349" stop-color="#FF9900"/>
<stop offset="0.428424" stop-color="#F9AC39"/>
</linearGradient>
<linearGradient id="paint1_linear_1416_46111" x1="124.756" y1="116.241" x2="209.429" y2="81.7787" gradientUnits="userSpaceOnUse">
<stop offset="0.300349" stop-color="#FF9900"/>
<stop offset="0.428424" stop-color="#F9AC39"/>
</linearGradient>
<linearGradient id="paint2_linear_1416_46111" x1="18.0516" y1="116.24" x2="102.763" y2="81.7644" gradientUnits="userSpaceOnUse">
<stop offset="0.300349" stop-color="#FF9900"/>
<stop offset="0.428424" stop-color="#F9AC39"/>
</linearGradient>
<linearGradient id="paint3_linear_1416_46111" x1="77.3791" y1="117.317" x2="77.3812" y2="117.11" gradientUnits="userSpaceOnUse">
<stop offset="0.300349" stop-color="#FF9900"/>
<stop offset="0.428424" stop-color="#F9AC39"/>
</linearGradient>
</defs>
</svg>
