<svg width="12" height="12" viewBox="0 0 12 12" fill="none" xmlns="http://www.w3.org/2000/svg">
<g id="Group 11933">
<g id="Group">
<path id="Vector" d="M1.12988 7.09672L2.92288 11.5582C3.12349 12.157 4.03723 12.1435 4.22004 11.5399C4.28314 11.3552 4.26542 11.1524 4.17124 10.9815L1.85922 6.91418L1.12988 7.09672Z" fill="#2D2852"/>
<path id="Vector_2" d="M3.2124 6.28246L10.4405 9.13535V0.891602L3.2124 3.74477V6.28246Z" fill="#2D2852"/>
<path id="Vector_3" d="M0.748438 3.24857C0.384455 3.14611 -0.010823 3.45348 0.000226467 3.83284V6.19395C-0.00713983 6.57681 0.378896 6.87818 0.748438 6.77823L2.81107 6.26217V3.76462L0.748438 3.24857ZM2.25751 6.01139L0.651101 6.41288C0.393096 6.46859 0.296755 6.09779 0.553764 6.02327L2.15992 5.62181C2.41922 5.56524 2.51278 5.93891 2.25751 6.01139ZM0.602572 4.81265H2.20873C2.47162 4.81374 2.47081 5.21305 2.20873 5.21412H0.602572C0.339678 5.21305 0.340489 4.81374 0.602572 4.81265ZM2.40338 4.25911C2.37623 4.36648 2.26738 4.43169 2.1599 4.40498L0.553741 4.00352C0.298677 3.93854 0.39708 3.55163 0.651078 3.61391L2.25751 4.01566C2.36497 4.04253 2.43032 4.15142 2.40345 4.25891C2.40342 4.25895 2.4034 4.25905 2.40338 4.25911Z" fill="#2D2852"/>
<path id="Vector_4" d="M10.8423 0.385735V9.60526C10.8412 10.1542 11.6242 10.1712 11.6452 9.64139V0.385735C11.6358 -0.131666 10.8504 -0.125481 10.8423 0.385735Z" fill="#2D2852"/>
<path id="Vector_5" d="M10.8421 0.385735V9.60526C10.841 10.1542 11.624 10.1712 11.645 9.64139V0.385735C11.6356 -0.131666 10.8502 -0.125481 10.8421 0.385735ZM3.21253 3.74472V6.28243L10.4406 9.13532V0.891554L3.21253 3.74472ZM0.748438 3.24861C0.384455 3.14615 -0.010823 3.45352 0.000226467 3.83288V6.19399C-0.00713983 6.57685 0.378896 6.87822 0.748438 6.77827L2.81107 6.26221V3.76466L0.748438 3.24861ZM2.25751 6.01143L0.651101 6.41292C0.393096 6.46863 0.296755 6.09784 0.553764 6.02331L2.15992 5.62185C2.41922 5.56528 2.51278 5.93895 2.25751 6.01143ZM0.602572 4.81269H2.20873C2.47162 4.81378 2.47081 5.21309 2.20873 5.21416H0.602572C0.339678 5.21309 0.340489 4.81378 0.602572 4.81269ZM2.40338 4.25916C2.37623 4.36652 2.26738 4.43173 2.1599 4.40502L0.553741 4.00356C0.298677 3.93858 0.39708 3.55167 0.651078 3.61396L2.25751 4.0157C2.36497 4.04257 2.43032 4.15146 2.40345 4.25895C2.40342 4.25899 2.4034 4.25909 2.40338 4.25916ZM4.17131 10.9814L1.85929 6.91415L1.12996 7.09669L2.92296 11.5582C3.12356 12.157 4.03731 12.1435 4.22012 11.5398C4.28322 11.3551 4.2655 11.1524 4.17131 10.9814Z" fill="#2D2852"/>
<path id="Vector_6" d="M3.98936 7.5887C3.91507 7.84633 3.6797 8.02405 3.41155 8.02495H2.95264L3.18102 8.42669C3.70731 8.4809 4.2258 8.23336 4.37544 7.69845L4.50971 7.22606L4.13439 7.07776L3.98936 7.5887Z" fill="#2D2852"/>
</g>
</g>
</svg>
