<svg width="15" height="15" viewBox="0 0 15 15" fill="none" xmlns="http://www.w3.org/2000/svg">
<g id="Group">
<g id="Group_2">
<path id="Vector" d="M14.1309 6.89785L13.3099 6.68168C13.2109 6.65529 13.1076 6.64949 13.0063 6.66469C12.9019 5.85 12.62 5.06816 12.1805 4.37432L12.8824 3.18421C13.0451 2.90974 12.9796 2.74944 12.897 2.66445C12.8144 2.57943 12.6541 2.51144 12.3772 2.66445L11.2891 3.2838C10.3533 2.38703 9.14257 1.83172 7.85235 1.70751L7.49532 0.374085C7.40791 0.0655781 7.25244 0 7.12857 0C7.00957 0 6.85169 0.0655781 6.76667 0.374029L6.39748 1.73902C5.17691 1.91454 4.0443 2.47532 3.16471 3.33962L1.9892 2.66926C1.71232 2.51138 1.55443 2.57941 1.46944 2.66926C1.38443 2.75912 1.3213 2.91213 1.48402 3.18902L2.25396 4.48601C1.85139 5.15329 1.59477 5.8983 1.50104 6.67195C1.39957 6.65757 1.29625 6.66418 1.19743 6.69139L0.376476 6.90756C0.0631587 6.97801 0 7.13586 0 7.25489C0 7.37389 0.0655781 7.53178 0.374029 7.61435L1.18041 7.82323C1.27308 7.84822 1.36857 7.86129 1.46458 7.86209H1.48157C1.55179 8.66436 1.79364 9.44214 2.19078 10.1427L1.48399 11.328C1.32127 11.6049 1.38685 11.7628 1.46942 11.8478C1.52665 11.9068 1.60584 11.9393 1.68801 11.9376C1.79489 11.9326 1.89866 11.9 1.98917 11.8429L3.0117 11.26C3.92376 12.2312 5.14435 12.856 6.46548 13.0282L6.76664 14.1357C6.84921 14.4442 7.00951 14.5073 7.12854 14.5073C7.24758 14.5073 7.40543 14.4418 7.49045 14.1357L7.78433 13.0525C9.17501 12.9343 10.4756 12.3155 11.4445 11.311L12.3748 11.8405C12.4653 11.8976 12.5691 11.9302 12.676 11.9352C12.7582 11.9369 12.8373 11.9043 12.8946 11.8454C12.9771 11.7603 13.0427 11.6025 12.88 11.3256L12.2534 10.2594C12.6915 9.52826 12.9565 8.70657 13.0282 7.85725H13.0451C13.1393 7.85762 13.2331 7.8462 13.3245 7.82323L14.126 7.61193C14.4369 7.53178 14.5 7.36905 14.5 7.25489C14.5 7.14073 14.4418 6.978 14.1309 6.89785ZM4.27183 9.96818C4.25785 9.99016 4.23648 10.0064 4.21157 10.014L4.22128 10.0068L2.93157 10.7354L2.12036 11.209L3.33478 9.14937C3.35365 9.11003 3.3894 9.0814 3.43192 9.07164C3.47123 9.07485 3.50777 9.09313 3.53393 9.12264L4.2383 9.81728C4.28922 9.84969 4.30425 9.91724 4.27183 9.96818ZM4.30598 4.63709C4.29835 4.66199 4.2821 4.68337 4.26013 4.69734L4.24556 4.69493L3.54119 5.38956C3.50305 5.44475 3.42742 5.45855 3.37223 5.42044C3.35174 5.40629 3.33612 5.3862 3.32743 5.36286V5.34342L2.11788 3.30079L3.0894 3.8497L4.23337 4.50061C4.29115 4.51826 4.32366 4.57937 4.30598 4.63709ZM6.4971 3.20604L7.12373 0.896234L7.42006 1.9892L7.69208 2.99473L7.74795 3.20362C7.7759 3.26012 7.75276 3.3286 7.69626 3.35655C7.67392 3.36762 7.64856 3.37104 7.62408 3.36634H6.62584C6.56393 3.37824 6.50407 3.33771 6.49218 3.2758C6.48748 3.25132 6.49089 3.22596 6.50197 3.20362L6.4971 3.20604ZM7.75037 11.3013L7.12373 13.6111L6.88086 12.7464L6.48981 11.3037C6.46186 11.2472 6.485 11.1787 6.5415 11.1508C6.56384 11.1397 6.5892 11.1363 6.61368 11.141H7.61921C7.68112 11.1291 7.74098 11.1696 7.75288 11.2315C7.75757 11.256 7.75416 11.2814 7.74308 11.3037L7.75037 11.3013ZM7.14579 7.98374C7.14007 7.98374 7.13432 7.98368 7.1286 7.98354C6.72628 7.97414 6.40775 7.64039 6.41715 7.2381C6.42654 6.83578 6.76029 6.51725 7.16259 6.52664C7.55819 6.53587 7.87413 6.85917 7.87424 7.25489C7.87435 7.6573 7.5482 7.98362 7.14579 7.98374ZM10.0801 4.5416C10.094 4.51962 10.1154 4.50337 10.1403 4.49574V4.50061L10.3565 4.37674L12.2461 3.30076L11.6875 4.25042L11.0341 5.36038C11.0107 5.42326 10.9408 5.45525 10.878 5.43188C10.8546 5.4232 10.8345 5.40757 10.8204 5.38708L10.1136 4.69245C10.0627 4.66009 10.0477 4.59252 10.0801 4.5416ZM11.5248 10.7961L10.1403 10.0092C10.0826 9.99152 10.0501 9.93042 10.0678 9.87269C10.0754 9.84779 10.0917 9.82641 10.1136 9.81244L10.4949 9.44083L10.8228 9.12022C10.849 9.09071 10.8855 9.07243 10.9248 9.06922C10.9674 9.07898 11.0031 9.10759 11.022 9.14695L11.1143 9.30483L12.234 11.209L11.5248 10.7961Z" fill="#FCA31E"/>
</g>
</g>
</svg>
