<svg width="16" height="24" viewBox="0 0 16 24" fill="none" xmlns="http://www.w3.org/2000/svg">
<rect width="16" height="24" fill="#1E1E1E"/>
<g id="BloxClash -Slots page" clip-path="url(#clip0_5804_163093)">
<rect width="1920" height="3001" transform="translate(-549 -1821)" fill="#141311"/>
<rect id="Rectangle 3" x="-249" y="-1692" width="1620" height="2872" fill="url(#paint0_linear_5804_163093)"/>
<g id="Group 1461">
<path id="Rectangle 74" d="M1138 -9L-10 -8.9999C-12.7614 -8.9999 -15 -6.76132 -15 -3.9999L-15 31C-15 33.7614 -12.7615 36 -10 36L1138 35.9999L1138 -9Z" fill="url(#paint1_linear_5804_163093)"/>
</g>
<g id="Group 161">
<path id="Vector" d="M13.9235 7.1803H11.4763H11.095C10.3824 8.23669 9.17463 8.93171 7.80449 8.93171C6.43434 8.93171 5.22654 8.23669 4.51395 7.1803H4.13307H2.07649C0.929561 7.1803 0 8.10986 0 9.25679V21.1038C0 22.2507 0.929561 23.1803 2.07649 23.1803H13.9235C15.0704 23.1803 16 22.2507 16 21.1038V9.25679C16 8.10986 15.07 7.1803 13.9235 7.1803Z" fill="#AFB6BB"/>
<path id="Vector_2" d="M7.80489 8.9321C7.39747 8.9321 7.00411 8.87005 6.63416 8.7561V14.6585C6.63416 15.3052 7.15825 15.8293 7.80489 15.8293C8.45152 15.8293 8.97562 15.3052 8.97562 14.6585V8.75571C8.60528 8.87005 8.2123 8.9321 7.80489 8.9321Z" fill="#9F9F9F"/>
<path id="Vector_3" d="M2.82236 21.2291C3.41872 21.2291 3.90216 20.7456 3.90216 20.1493C3.90216 19.5529 3.41872 19.0695 2.82236 19.0695C2.226 19.0695 1.74255 19.5529 1.74255 20.1493C1.74255 20.7456 2.226 21.2291 2.82236 21.2291Z" fill="#FF0A00"/>
<path id="Vector_4" d="M11.3171 21.6193C13.0428 21.6193 14.4391 20.223 14.4391 18.4974" stroke="#E7ECED" stroke-width="2" stroke-miterlimit="10" stroke-linecap="round"/>
<path id="Vector_5" d="M8.97559 9.66302V14.6585C8.97559 15.3052 8.45149 15.8293 7.80486 15.8293C7.15823 15.8293 6.63413 15.3052 6.63413 14.6585V9.66302C4.39764 10.1922 2.73169 12.1969 2.73169 14.5949C2.73169 17.3969 5.00291 19.6681 7.80486 19.6681C10.6068 19.6681 12.878 17.3969 12.878 14.5949C12.878 12.1969 11.2117 10.1922 8.97559 9.66302Z" fill="#546A79"/>
<path id="Vector_6" d="M8.97571 10.9496V14.6585C8.97571 15.3052 8.45161 15.8293 7.80498 15.8293C7.15835 15.8293 6.63425 15.3052 6.63425 14.6585V10.9496C5.17903 11.439 4.12927 12.8115 4.12927 14.4318C4.12927 16.4618 5.77493 18.1075 7.80498 18.1075C9.83503 18.1075 11.4807 16.4618 11.4807 14.4318C11.4803 12.8115 10.4309 11.439 8.97571 10.9496Z" fill="#38454F"/>
<path id="Vector_7" d="M8 10C10.7614 10 13 7.76142 13 5C13 2.23858 10.7614 0 8 0C5.23858 0 3 2.23858 3 5C3 7.76142 5.23858 10 8 10Z" fill="#FB0A00"/>
<path id="Vector_8" d="M5.46349 5.22908C5.24807 5.22908 5.07324 5.05464 5.07324 4.83884C5.07324 3.54752 6.12339 2.49738 7.41471 2.49738C7.63012 2.49738 7.80495 2.67181 7.80495 2.88762C7.80495 3.10342 7.63012 3.27786 7.41471 3.27786C6.55383 3.27786 5.85373 3.97796 5.85373 4.83884C5.85373 5.05464 5.6789 5.22908 5.46349 5.22908Z" fill="#FFD3CD"/>
</g>
</g>
<defs>
<linearGradient id="paint0_linear_5804_163093" x1="1893.48" y1="-2045.19" x2="-2295.06" y2="-1312.42" gradientUnits="userSpaceOnUse">
<stop stop-color="#2B2853"/>
<stop offset="1" stop-color="#423C7A"/>
</linearGradient>
<linearGradient id="paint1_linear_5804_163093" x1="-582" y1="8.99961" x2="1115.69" y2="88.8903" gradientUnits="userSpaceOnUse">
<stop stop-color="#6864A4"/>
<stop offset="0.298225" stop-color="#5A5495" stop-opacity="0.653301"/>
<stop offset="1" stop-color="#423579" stop-opacity="0"/>
</linearGradient>
<clipPath id="clip0_5804_163093">
<rect width="1920" height="3001" fill="white" transform="translate(-549 -1821)"/>
</clipPath>
</defs>
</svg>
