<svg width="14" height="17" viewBox="0 0 14 17" fill="none" xmlns="http://www.w3.org/2000/svg">
<g id="Group 1345">
<g id="Vector">
<path d="M5.80664 8.42139H8.19293V16.3821H5.80664V8.42139Z" fill="black"/>
<path d="M5.80664 8.42139H8.19293V16.3821H5.80664V8.42139Z" fill="url(#paint0_linear_5095_89020)"/>
</g>
<g id="Vector_2">
<path d="M2.5828 3.82071C3.13557 4.16624 4.91014 4.26374 6.13623 4.27435H6.5199C5.99895 3.19777 5.00009 1.31836 4.38654 0.935093C3.59961 0.443517 2.53222 0.691957 2.04187 1.47603C1.55131 2.26031 1.79751 3.32995 2.5828 3.82071Z" fill="black"/>
<path d="M2.5828 3.82071C3.13557 4.16624 4.91014 4.26374 6.13623 4.27435H6.5199C5.99895 3.19777 5.00009 1.31836 4.38654 0.935093C3.59961 0.443517 2.53222 0.691957 2.04187 1.47603C1.55131 2.26031 1.79751 3.32995 2.5828 3.82071Z" fill="url(#paint1_linear_5095_89020)"/>
</g>
<g id="Vector_3">
<path d="M5.53809 4.88635H8.46144V7.80909H5.53809V4.88635Z" fill="black"/>
<path d="M5.53809 4.88635H8.46144V7.80909H5.53809V4.88635Z" fill="url(#paint2_linear_5095_89020)"/>
</g>
<g id="Vector_4">
<path d="M0.613281 8.42139H5.19453V16.3821H0.613281V8.42139Z" fill="black"/>
<path d="M0.613281 8.42139H5.19453V16.3821H0.613281V8.42139Z" fill="url(#paint3_linear_5095_89020)"/>
</g>
<g id="Vector_5">
<path d="M9.07324 7.80909H13.692C13.6934 7.80909 13.6947 7.8095 13.6959 7.8095H13.9996V4.88635H9.07324V7.80909Z" fill="black"/>
<path d="M9.07324 7.80909H13.692C13.6934 7.80909 13.6947 7.8095 13.6959 7.8095H13.9996V4.88635H9.07324V7.80909Z" fill="url(#paint4_linear_5095_89020)"/>
</g>
<g id="Vector_6">
<path d="M0.307592 7.80909H4.92637V4.88635H0V7.8095H0.303717C0.305144 7.8095 0.306368 7.80909 0.307592 7.80909Z" fill="black"/>
<path d="M0.307592 7.80909H4.92637V4.88635H0V7.8095H0.303717C0.305144 7.8095 0.306368 7.80909 0.307592 7.80909Z" fill="url(#paint5_linear_5095_89020)"/>
</g>
<g id="Vector_7">
<path d="M11.9575 1.47612C11.4668 0.691434 10.3984 0.444421 9.61285 0.935182C8.9993 1.31845 8.00044 3.19786 7.47949 4.27443H7.96597C9.18553 4.26077 10.8791 4.15674 11.4164 3.8208C12.2003 3.33085 12.4467 2.25836 11.9575 1.47612Z" fill="black"/>
<path d="M11.9575 1.47612C11.4668 0.691434 10.3984 0.444421 9.61285 0.935182C8.9993 1.31845 8.00044 3.19786 7.47949 4.27443H7.96597C9.18553 4.26077 10.8791 4.15674 11.4164 3.8208C12.2003 3.33085 12.4467 2.25836 11.9575 1.47612Z" fill="url(#paint6_linear_5095_89020)"/>
</g>
<g id="Vector_8">
<path d="M8.80566 8.42139H13.3869V16.3821H8.80566V8.42139Z" fill="black"/>
<path d="M8.80566 8.42139H13.3869V16.3821H8.80566V8.42139Z" fill="url(#paint7_linear_5095_89020)"/>
</g>
</g>
<defs>
<linearGradient id="paint0_linear_5095_89020" x1="6.64187" y1="16.2884" x2="11.1516" y2="15.2745" gradientUnits="userSpaceOnUse">
<stop offset="0.300349" stop-color="#FF9900"/>
<stop offset="0.428424" stop-color="#F9AC39"/>
</linearGradient>
<linearGradient id="paint1_linear_5095_89020" x1="3.44492" y1="4.23208" x2="8.19896" y2="-0.463804" gradientUnits="userSpaceOnUse">
<stop offset="0.300349" stop-color="#FF9900"/>
<stop offset="0.428424" stop-color="#F9AC39"/>
</linearGradient>
<linearGradient id="paint2_linear_5095_89020" x1="6.5613" y1="7.77471" x2="10.2752" y2="4.98862" gradientUnits="userSpaceOnUse">
<stop offset="0.300349" stop-color="#FF9900"/>
<stop offset="0.428424" stop-color="#F9AC39"/>
</linearGradient>
<linearGradient id="paint3_linear_5095_89020" x1="2.21678" y1="16.2884" x2="9.88385" y2="12.9791" gradientUnits="userSpaceOnUse">
<stop offset="0.300349" stop-color="#FF9900"/>
<stop offset="0.428424" stop-color="#F9AC39"/>
</linearGradient>
<linearGradient id="paint4_linear_5095_89020" x1="10.7975" y1="7.77511" x2="14.5626" y2="3.01599" gradientUnits="userSpaceOnUse">
<stop offset="0.300349" stop-color="#FF9900"/>
<stop offset="0.428424" stop-color="#F9AC39"/>
</linearGradient>
<linearGradient id="paint5_linear_5095_89020" x1="1.72429" y1="7.77511" x2="5.48935" y2="3.01599" gradientUnits="userSpaceOnUse">
<stop offset="0.300349" stop-color="#FF9900"/>
<stop offset="0.428424" stop-color="#F9AC39"/>
</linearGradient>
<linearGradient id="paint6_linear_5095_89020" x1="9.13499" y1="4.23218" x2="13.8887" y2="-0.462681" gradientUnits="userSpaceOnUse">
<stop offset="0.300349" stop-color="#FF9900"/>
<stop offset="0.428424" stop-color="#F9AC39"/>
</linearGradient>
<linearGradient id="paint7_linear_5095_89020" x1="10.4092" y1="16.2884" x2="18.0762" y2="12.9791" gradientUnits="userSpaceOnUse">
<stop offset="0.300349" stop-color="#FF9900"/>
<stop offset="0.428424" stop-color="#F9AC39"/>
</linearGradient>
</defs>
</svg>
