<svg width="16" height="16" viewBox="0 0 16 16" fill="none" xmlns="http://www.w3.org/2000/svg">
<g id="Group">
<path id="Vector" d="M13.3555 5.45021C13.6609 6.0892 13.8554 6.79093 13.9135 7.53044H15.9999C15.9367 6.42926 15.6521 5.36991 15.1666 4.40454L13.3555 5.45021Z" fill="#FCA31E"/>
<path id="Vector_2" d="M3.12157 4.62896C3.53138 4.03774 4.04569 3.52432 4.63769 3.11554L3.59211 1.30453C3.14383 1.60096 2.72197 1.9445 2.3332 2.33327C1.97961 2.68685 1.66365 3.06796 1.38623 3.47129L3.12157 4.62896Z" fill="#FCA31E"/>
<path id="Vector_3" d="M4.63767 12.8845C4.04272 12.4737 3.52626 11.9572 3.11545 11.3622L1.30444 12.4078C1.60087 12.8561 1.9444 13.278 2.33318 13.6667C2.72192 14.0555 3.14381 14.399 3.59209 14.6955L4.63767 12.8845Z" fill="#FCA31E"/>
<path id="Vector_4" d="M12.8845 11.3623C12.4737 11.9572 11.9572 12.4737 11.3623 12.8845L12.4079 14.6955C12.8562 14.399 13.2781 14.0555 13.6668 13.6668C14.0555 13.278 14.3991 12.8561 14.6955 12.4078L12.8845 11.3623Z" fill="#FCA31E"/>
<path id="Vector_5" d="M2.64446 10.5498C2.33899 9.91081 2.14456 9.20908 2.08639 8.46957H0C0.0632041 9.57075 0.347826 10.6301 0.833361 11.5955L2.64446 10.5498Z" fill="#FCA31E"/>
<path id="Vector_6" d="M10.5497 13.3555C9.91072 13.661 9.20896 13.8554 8.46948 13.9136V16C9.57069 15.9368 10.63 15.6521 11.5954 15.1666L10.5497 13.3555Z" fill="#FCA31E"/>
<path id="Vector_7" d="M13.9135 8.46957C13.8553 9.20908 13.6609 9.91084 13.3555 10.5498L15.1666 11.5954C15.6521 10.6301 15.9367 9.57075 15.9999 8.46954H13.9135V8.46957Z" fill="#FCA31E"/>
<path id="Vector_8" d="M7.53044 13.9136C6.79093 13.8554 6.0892 13.661 5.45021 13.3555L4.40454 15.1667C5.36991 15.6522 6.42923 15.9368 7.53044 16V13.9136Z" fill="#FCA31E"/>
<path id="Vector_9" d="M8.46948 2.08639C9.20899 2.14459 9.91072 2.33902 10.5497 2.64446L11.5954 0.83333C10.63 0.347857 9.57066 0.0632041 8.46948 0V2.08639Z" fill="#FCA31E"/>
<path id="Vector_10" d="M11.3623 3.11554C11.9572 3.52635 12.4737 4.04282 12.8845 4.63776L14.6955 3.59219C14.3991 3.1439 14.0556 2.72204 13.6668 2.33327C13.278 1.94453 12.8562 1.60099 12.4079 1.30453L11.3623 3.11554Z" fill="#FCA31E"/>
<path id="Vector_11" d="M5.45021 2.64446C6.0892 2.33902 6.79093 2.14459 7.53044 2.08639V0C6.42923 0.0632041 5.36991 0.347857 4.40454 0.833361L5.45021 2.64446Z" fill="#FCA31E"/>
<path id="Vector_12" d="M2.08639 7.53044C2.14484 6.78783 2.34059 6.08326 2.64825 5.4421L0.90004 4.27582C0.374153 5.27547 0.0660215 6.38002 0 7.53044H2.08639Z" fill="#FCA31E"/>
<path id="Vector_13" d="M8.00011 3.00696C5.24696 3.00696 3.00708 5.24681 3.00708 7.99999C3.00708 10.7532 5.24696 12.993 8.00011 12.993C10.7533 12.993 12.9931 10.7532 12.9931 7.99999C12.9931 5.24681 10.7533 3.00696 8.00011 3.00696ZM9.86634 7.99999C9.86634 8.33786 9.7769 8.6619 9.60967 8.94548L10.6986 10.0344C10.882 10.2178 10.882 10.5151 10.6986 10.6985C10.6069 10.7902 10.4867 10.836 10.3666 10.836C10.2464 10.836 10.1262 10.7902 10.0346 10.6985L8.94564 9.60955C8.66205 9.77678 8.33801 9.86625 8.00014 9.86625C7.66227 9.86625 7.3382 9.77681 7.05465 9.60955L5.96571 10.6985C5.87402 10.7902 5.75381 10.836 5.6337 10.836C5.51352 10.836 5.39334 10.7902 5.30168 10.6985C5.1183 10.5151 5.1183 10.2178 5.30168 10.0344L6.39061 8.94548C6.22338 8.6619 6.13395 8.33786 6.13395 7.99999C6.13395 7.66212 6.22338 7.33808 6.39061 7.05449L5.30168 5.96556C5.1183 5.78221 5.1183 5.48488 5.30168 5.3015C5.48503 5.11811 5.78236 5.11811 5.96575 5.3015L7.05468 6.39043C7.33827 6.2232 7.6623 6.13373 8.00017 6.13373C8.33804 6.13373 8.66211 6.22317 8.94567 6.39043L10.0346 5.3015C10.218 5.11811 10.5153 5.11814 10.6987 5.3015C10.882 5.48488 10.882 5.78218 10.6987 5.96556L9.60973 7.05449C9.7769 7.33808 9.86634 7.66212 9.86634 7.99999V7.99999Z" fill="#FCA31E"/>
<path id="Vector_14" d="M8.00009 7.07333C7.76267 7.07333 7.52526 7.16371 7.34453 7.34443C7.16942 7.51955 7.073 7.75236 7.073 7.99998C7.073 8.2476 7.16942 8.48045 7.34453 8.65553C7.70601 9.01701 8.29419 9.01701 8.65567 8.65553C8.83079 8.48042 8.9272 8.2476 8.9272 7.99998C8.9272 7.75236 8.83079 7.51952 8.65567 7.34443C8.47491 7.16371 8.2375 7.07333 8.00009 7.07333Z" fill="#FCA31E"/>
</g>
</svg>
