<svg width="14" height="12" viewBox="0 0 14 12" fill="none" xmlns="http://www.w3.org/2000/svg">
<path d="M12.1254 8.40318H11.2552V1.78249C11.2552 0.795756 10.4184 0 9.38085 0H1.78308C1.74961 0 1.71614 3.1497e-08 1.68267 0.0159152C0.645093 0.127321 -0.0912549 1.00265 0.00915613 1.98939C0.109567 2.81698 0.795709 3.48541 1.68267 3.5809C1.71614 3.5809 1.74961 3.59682 1.78308 3.59682H1.8835V10.2175V10.2334C1.90023 11.2042 2.73699 12 3.75783 12H11.9915H12.0417H12.1254C13.163 12 13.9998 11.2042 13.9998 10.2175C14.0165 9.19894 13.163 8.40318 12.1254 8.40318ZM1.8835 2.62599V2.61008C1.39818 2.61008 1.01327 2.24403 1.01327 1.78249C1.01327 1.32095 1.39818 0.954907 1.8835 0.954907H7.72407C7.43957 1.48011 7.43957 2.1008 7.72407 2.62599H1.8835ZM9.91638 9.13528H3.05496V8.18037H9.91638V9.13528ZM9.91638 7.22546H3.05496V6.27056H9.91638V7.22546ZM9.91638 5.31565H3.05496V4.36074H9.91638V5.31565ZM12.1422 11.0133C11.6568 11.0133 11.2719 10.6472 11.2719 10.1857V9.35809H12.1422C12.6275 9.35809 13.0124 9.72414 13.0124 10.1857C13.0124 10.6472 12.6275 11.0133 12.1422 11.0133Z" fill="#ADA3EF"/>
</svg>
