<svg width="13" height="13" viewBox="0 0 13 13" fill="none" xmlns="http://www.w3.org/2000/svg">
<path id="Vector" d="M10.8616 11.9282L10.8617 11.9283C11.0046 12.0715 11.1966 12.15 11.4003 12.15C11.5932 12.15 11.7777 12.0789 11.9182 11.9483C12.2186 11.6692 12.2285 11.2041 11.939 10.9134L11.8328 11.0193L11.939 10.9134L9.32448 8.28807C9.98769 7.47912 10.3503 6.48009 10.3503 5.44125C10.3503 2.90461 8.21446 0.85 5.60015 0.85C2.98584 0.85 0.85 2.90461 0.85 5.44125C0.85 7.97788 2.98584 10.0325 5.60015 10.0325C6.53983 10.0325 7.43827 9.77047 8.21588 9.27155L10.8616 11.9282ZM5.60015 2.30859C7.39718 2.30859 8.85026 3.71892 8.85026 5.44125C8.85026 7.16357 7.39718 8.57391 5.60015 8.57391C3.80312 8.57391 2.35004 7.16357 2.35004 5.44125C2.35004 3.71892 3.80312 2.30859 5.60015 2.30859Z" fill="#837EC1" stroke="#837EC1" stroke-width="0.3"/>
</svg>
