<svg width="12" height="12" viewBox="0 0 12 12" fill="none" xmlns="http://www.w3.org/2000/svg">
<path d="M11.7328 4.98281L10.3289 4.63828C10.2516 4.39219 10.1531 4.15313 10.0336 3.92109L10.7508 2.72578C10.8352 2.58516 10.8141 2.40938 10.7016 2.29688L9.70312 1.29844C9.59062 1.18594 9.41484 1.16484 9.27422 1.24922L8.07891 1.96641C7.84688 1.84688 7.60781 1.74844 7.36172 1.67109L7.02422 0.267187C6.98203 0.1125 6.84141 0 6.67969 0H5.27344C5.11172 0 4.97109 0.1125 4.92891 0.267187L4.59141 1.67109C4.34531 1.74844 4.10625 1.84688 3.87422 1.96641L2.67891 1.24922C2.53828 1.16484 2.3625 1.18594 2.25 1.29844L1.25156 2.29688C1.13906 2.40938 1.11797 2.58516 1.20234 2.72578L1.91953 3.92109C1.8 4.15313 1.70156 4.39219 1.62422 4.63828L0.267187 4.98281C0.1125 5.01797 0 5.15859 0 5.32031V6.72656C0 6.88828 0.1125 7.02891 0.267187 7.06406L1.62422 7.40859C1.70156 7.65469 1.8 7.89375 1.91953 8.12578L1.20234 9.32109C1.11797 9.46172 1.13906 9.6375 1.25156 9.75L2.25 10.7484C2.3625 10.8609 2.53828 10.882 2.67891 10.7977L3.87422 10.0805C4.10625 10.2 4.34531 10.2984 4.59141 10.3758L4.92891 11.7328C4.97109 11.8875 5.11172 12 5.27344 12H6.67969C6.84141 12 6.98203 11.8875 7.02422 11.7328L7.36172 10.3758C7.60781 10.2984 7.84688 10.2 8.07891 10.0805L9.27422 10.7977C9.41484 10.882 9.59062 10.8609 9.70312 10.7484L10.7016 9.75C10.8141 9.6375 10.8352 9.46172 10.7508 9.32109L10.0336 8.12578C10.1531 7.89375 10.2516 7.65469 10.3289 7.40859L11.7328 7.06406C11.8875 7.02891 12 6.88828 12 6.72656V5.32031C12 5.15859 11.8875 5.01797 11.7328 4.98281ZM5.97656 7.78125C5.00625 7.78125 4.21875 6.99375 4.21875 6.02344C4.21875 5.05312 5.00625 4.26562 5.97656 4.26562C6.94688 4.26562 7.73438 5.05312 7.73438 6.02344C7.73438 6.99375 6.94688 7.78125 5.97656 7.78125Z" fill="#ADA3EF"/>
</svg>
