<svg width="19" height="19" viewBox="0 0 19 19" fill="none" xmlns="http://www.w3.org/2000/svg">
<path d="M18.8724 2.40777C17.5783 3.40031 12.8382 7.79329 13.6931 18.2991C13.7069 18.4803 13.6444 18.6591 13.5206 18.7922C13.3968 18.9253 13.223 19.0007 13.0413 19.0001H5.25129C5.07227 19.0002 4.90092 18.9272 4.77727 18.7979C4.65348 18.6686 4.58796 18.4942 4.59608 18.3154C4.68117 16.2811 5.33972 10.224 10.0602 6.86628C9.74111 6.84396 9.42437 6.79467 9.11344 6.71886C7.60659 6.37153 6.52229 5.56904 5.24143 5.56904C4.56694 5.57252 3.95043 5.95144 3.64282 6.55172C3.39581 6.99399 3.26941 7.49323 3.27593 7.99972V8.18976C3.27477 8.55114 2.9821 8.84381 2.62072 8.84483H0.655215C0.293832 8.84381 0.00101472 8.55114 0 8.18976V0.655215C0.00101472 0.293832 0.293832 0.00101472 0.655215 0H2.62072C2.9821 0.00101472 3.27477 0.293832 3.27593 0.655215V1.9655C4.19207 0.935421 5.50091 0.340509 6.87933 0.327608C9.17243 0.327608 9.82765 1.63789 13.7587 1.63789C14.8425 1.62398 15.8785 1.18939 16.648 0.42589C16.7671 0.304704 16.9592 0.294702 17.0902 0.402986L18.8821 1.89679C18.9585 1.96043 19.0018 2.05523 18.9999 2.15467C18.9979 2.25397 18.9511 2.34703 18.8724 2.40777Z" fill="#EB5463"/>
<path d="M3.27598 0.655215V1.9655H2.62076C2.43985 1.9655 2.29315 1.8188 2.29315 1.63789V0.655215C2.29214 0.293832 1.99932 0.00101472 1.63794 0H2.62076C2.98215 0.00101472 3.27482 0.293832 3.27598 0.655215Z" fill="#D94452"/>
<path d="M18.8723 2.40762C17.5783 3.40015 12.8381 7.79314 13.6931 18.2989C13.7069 18.4801 13.6444 18.659 13.5206 18.7921C13.3968 18.9251 13.223 19.0005 13.0412 18.9999H12.0945C12.2763 19.0005 12.4501 18.9251 12.5739 18.7921C12.6977 18.659 12.7601 18.4801 12.7464 18.2989C11.8914 7.79314 16.6316 3.40015 17.9256 2.40762C18.0043 2.34688 18.0511 2.25381 18.0532 2.15452C18.0551 2.05508 18.0117 1.96027 17.9353 1.89664L16.4253 0.635345C16.5038 0.566635 16.5792 0.497779 16.6479 0.425734C16.7671 0.304549 16.9592 0.294546 17.0902 0.402831L18.882 1.89664C18.9584 1.96027 19.0018 2.05508 18.9999 2.15452C18.9979 2.25381 18.9511 2.34688 18.8723 2.40762Z" fill="#D94452"/>
<path d="M4.83534 5.61479C4.3232 5.74439 3.88992 6.08475 3.64291 6.55166C3.3959 6.99393 3.26949 7.49317 3.27602 7.99966V8.1897C3.27486 8.55108 2.98218 8.84376 2.6208 8.84477H1.67407C2.03546 8.84376 2.32813 8.55108 2.32929 8.1897V7.99966C2.32276 7.49317 2.44917 6.99393 2.69618 6.55166C3.00378 5.95139 3.62029 5.57246 4.29479 5.56898C4.47584 5.56927 4.65675 5.58464 4.83534 5.61479Z" fill="#D94452"/>
<path d="M11.8489 5.95882C11.227 6.20772 10.6285 6.51141 10.0603 6.86627C9.7412 6.84394 9.42446 6.79466 9.11353 6.71884C9.12396 6.70623 9.13614 6.69522 9.14962 6.68608C9.91298 6.1451 10.7376 5.69645 11.6065 5.34956C11.7748 5.28259 11.9655 5.36463 12.0324 5.53293C12.0994 5.70123 12.0172 5.89185 11.8489 5.95882Z" fill="#D94452"/>
<path d="M5.95038 18.0171C5.94095 18.0177 5.93139 18.0177 5.92197 18.0171C5.74178 18.0016 5.60827 17.8429 5.62378 17.6627C5.80237 15.5989 6.64749 10.4974 10.6323 7.66864C10.7798 7.56398 10.9844 7.59862 11.089 7.74619C11.1938 7.89376 11.1592 8.0983 11.0116 8.20296C7.25023 10.8731 6.4473 15.7474 6.27639 17.7191C6.26117 17.8878 6.11983 18.017 5.95038 18.0171Z" fill="#F76C82"/>
<path d="M13.7587 3.27607C12.0586 3.30956 10.3684 3.01007 8.78326 2.39414C8.18182 2.13104 7.5356 1.98564 6.87937 1.96564C6.69846 1.96564 6.55176 1.81894 6.55176 1.63803C6.55176 1.45712 6.69846 1.31042 6.87937 1.31042C7.61054 1.33028 8.33128 1.48858 9.00345 1.7769C10.5183 2.36587 12.1337 2.6526 13.7587 2.62086C14.8118 2.61317 15.8371 2.28151 16.6953 1.67079C16.8426 1.57512 17.0391 1.61281 17.1407 1.75617C17.2424 1.89939 17.2129 2.09741 17.0739 2.20482C16.1051 2.89396 14.9476 3.2681 13.7587 3.27607Z" fill="#F76C82"/>
</svg>
