<svg width="12" height="10" viewBox="0 0 12 10" fill="none" xmlns="http://www.w3.org/2000/svg">
<path d="M4.89798 9.16324C4.88265 9.12244 4.87737 9.08776 4.88257 9.05969C4.88774 9.03182 4.86992 9.00871 4.82904 8.99091C4.78816 8.97311 4.76776 8.95899 4.76776 8.94891C4.76776 8.93872 4.73847 8.93103 4.67974 8.92599C4.62103 8.92087 4.59173 8.91827 4.59173 8.91827H4.49229H4.40812H2.20403C1.86731 8.91827 1.57902 8.79848 1.33919 8.55852C1.09942 8.31872 0.979543 8.03051 0.979543 7.69383V2.30604C0.979543 1.96931 1.09939 1.68113 1.33919 1.44133C1.57902 1.2015 1.86731 1.08155 2.20403 1.08155H4.65298C4.71933 1.08155 4.77149 1.06509 4.80985 1.03185C4.84805 0.998693 4.87351 0.948916 4.88632 0.882599C4.89908 0.816283 4.90678 0.7564 4.90935 0.702817C4.91187 0.649287 4.91064 0.58163 4.90549 0.500008C4.90042 0.418413 4.89788 0.367403 4.89788 0.346897C4.89788 0.280581 4.87362 0.223298 4.82518 0.174727C4.77669 0.126371 4.71933 0.102112 4.65301 0.102112H2.20403C1.59695 0.102112 1.07778 0.317679 0.646622 0.748788C0.215568 1.1799 0 1.69898 0 2.30612V7.69381C0 8.30089 0.215568 8.82011 0.646622 9.25106C1.07778 9.68238 1.59695 9.89795 2.20403 9.89795H4.65309C4.71943 9.89795 4.77162 9.88127 4.80996 9.84825C4.84815 9.81504 4.87362 9.76531 4.88643 9.69892C4.89919 9.63268 4.90688 9.5725 4.90946 9.51913C4.91198 9.46555 4.91074 9.39803 4.9056 9.31641C4.90048 9.2347 4.89798 9.18372 4.89798 9.16324Z" fill="#ADA3EF"/>
<path d="M11.8546 4.65561L7.69136 0.492254C7.59448 0.395434 7.47965 0.346863 7.34699 0.346863C7.21433 0.346863 7.0995 0.395434 7.00251 0.492254C6.90556 0.589209 6.85712 0.704123 6.85712 0.836701V3.04079H3.42857C3.29583 3.04079 3.18108 3.08936 3.08413 3.18618C2.98717 3.28313 2.93874 3.39797 2.93874 3.53063V6.46944C2.93874 6.60207 2.98717 6.71691 3.08413 6.81381C3.18119 6.91058 3.29592 6.95928 3.42857 6.95928H6.85715V9.16334C6.85715 9.29589 6.90559 9.41083 7.00254 9.50771C7.0995 9.60466 7.21433 9.6532 7.34702 9.6532C7.47965 9.6532 7.59448 9.60466 7.69138 9.50771L11.8546 5.34453C11.9515 5.2475 12 5.13283 12 5.00014C12 4.86751 11.9515 4.75257 11.8546 4.65561Z" fill="#ADA3EF"/>
</svg>
