<svg width="13" height="15" viewBox="0 0 13 15" fill="none" xmlns="http://www.w3.org/2000/svg">
<path id="Vector" d="M3.25 4.39453C3.87048 4.39453 4.41702 4.21131 4.86833 3.97751C4.41014 4.91009 4.1356 5.98961 4.08112 7.10289C2.24908 7.31564 0.8125 8.97823 0.8125 11.0156C0.8125 13.1965 2.45263 15 4.46875 15C5.08987 15 5.68485 14.8107 6.21848 14.4941C5.39064 13.6162 4.875 12.3658 4.875 11.0156C4.875 9.66545 5.39064 8.44437 6.21848 7.56649C5.80758 7.32262 5.35986 7.15679 4.89235 7.09236C5.06903 3.98621 7.2376 1.4241 10.0336 0.956612C9.32153 2.03808 8.9375 3.32851 8.9375 4.68338V7.10495C7.11435 7.32685 5.6875 8.9851 5.6875 11.0156C5.6875 13.1965 7.32763 15 9.34375 15C11.3599 15 13 13.1965 13 11.0156C13 8.9851 11.5732 7.32685 9.75 7.10495V4.68338C9.75 3.19759 10.2848 1.80073 11.256 0.75016L11.9495 0H10.9688C9.06064 0 7.33133 0.841713 6.0801 2.19944C5.75161 1.85829 4.69832 0.878906 3.25 0.878906C1.53613 0.878906 0.363403 2.26032 0.306698 2.31915L0 2.63672L0.306698 2.95429C0.363403 3.01311 1.53613 4.39453 3.25 4.39453ZM9.34375 9.69727C8.67175 9.69727 8.125 10.2887 8.125 11.0156H7.3125C7.3125 9.80415 8.22381 8.81836 9.34375 8.81836V9.69727ZM4.46875 9.69727C3.79674 9.69727 3.25 10.2887 3.25 11.0156H2.4375C2.4375 9.80415 3.34881 8.81836 4.46875 8.81836V9.69727Z" fill="#FCA31E"/>
</svg>
