<svg width="9" height="11" viewBox="0 0 9 11" fill="none" xmlns="http://www.w3.org/2000/svg">
<path d="M6.0144 0.687503H5.25919C5.11593 0.287376 4.72929 0 4.27588 0C3.82248 0 3.43583 0.287376 3.29188 0.687503H2.53737C2.34544 0.687503 2.18967 0.841504 2.18967 1.03125V2.40626C2.18967 2.59601 2.34544 2.75001 2.53737 2.75001H6.0144C6.20633 2.75001 6.3621 2.59601 6.3621 2.40626V1.03125C6.3621 0.841504 6.20633 0.687503 6.0144 0.687503Z" fill="#2D2852"/>
<path d="M7.7529 1.37488H7.0575V2.40613C7.0575 2.9747 6.58949 3.43739 6.01439 3.43739H2.53737C1.96227 3.43739 1.49426 2.9747 1.49426 2.40613V1.37488H0.798852C0.415684 1.37488 0.103447 1.68357 0.103447 2.06238V10.3124C0.103447 10.6981 0.40873 10.9999 0.798852 10.9999H7.7529C8.14303 10.9999 8.44831 10.6981 8.44831 10.3124V2.06238C8.44831 1.67669 8.14303 1.37488 7.7529 1.37488ZM4.17435 7.46203L2.78354 8.83704C2.71539 8.90372 2.62638 8.93741 2.53737 8.93741C2.44835 8.93741 2.35934 8.90372 2.29119 8.83704L1.59579 8.14953C1.46018 8.01547 1.46018 7.79753 1.59579 7.66347C1.73139 7.5294 1.95183 7.5294 2.08744 7.66347L2.53737 8.10759L3.682 6.97597C3.81761 6.8419 4.03805 6.8419 4.17365 6.97597C4.30926 7.11003 4.30995 7.32728 4.17435 7.46203ZM4.17435 4.71202L2.78354 6.08702C2.71539 6.15371 2.62638 6.1874 2.53737 6.1874C2.44835 6.1874 2.35934 6.15371 2.29119 6.08702L1.59579 5.39952C1.46018 5.26546 1.46018 5.04752 1.59579 4.91346C1.73139 4.77939 1.95183 4.77939 2.08744 4.91346L2.53737 5.35758L3.682 4.22595C3.81761 4.09189 4.03805 4.09189 4.17365 4.22595C4.30926 4.36002 4.30995 4.57727 4.17435 4.71202ZM6.7098 8.24991H5.31899C5.12705 8.24991 4.97128 8.09591 4.97128 7.90616C4.97128 7.71641 5.12705 7.5624 5.31899 7.5624H6.7098C6.90173 7.5624 7.0575 7.71641 7.0575 7.90616C7.0575 8.09591 6.90173 8.24991 6.7098 8.24991ZM6.7098 5.4999H5.31899C5.12705 5.4999 4.97128 5.3459 4.97128 5.15614C4.97128 4.96639 5.12705 4.81239 5.31899 4.81239H6.7098C6.90173 4.81239 7.0575 4.96639 7.0575 5.15614C7.0575 5.3459 6.90173 5.4999 6.7098 5.4999Z" fill="#2D2852"/>
</svg>
