<svg width="141" height="141" viewBox="0 0 141 141" fill="none" xmlns="http://www.w3.org/2000/svg">
<g id="Group 11762" filter="url(#filter0_d_2283_51766)">
<g id="Rectangle 56">
<rect x="70.5947" y="40.7071" width="36.6109" height="36.6109" rx="2.5" transform="rotate(45 70.5947 40.7071)" fill="url(#paint0_linear_2283_51766)"/>
<rect x="70.5947" y="40.7071" width="36.6109" height="36.6109" rx="2.5" transform="rotate(45 70.5947 40.7071)" fill="#FFBE18" fill-opacity="0.25"/>
<rect x="70.5947" y="40.7071" width="36.6109" height="36.6109" rx="2.5" transform="rotate(45 70.5947 40.7071)" stroke="url(#paint1_angular_2283_51766)"/>
</g>
<path id="Vector" d="M60.616 76.7625C60.481 76.6274 60.3738 76.467 60.3007 76.2905C60.2276 76.114 60.1899 75.9249 60.1899 75.7338C60.1899 75.5428 60.2276 75.3536 60.3007 75.1771C60.3738 75.0006 60.481 74.8402 60.616 74.7051L63.7022 71.6189L61.6447 69.5615C61.3719 69.2887 61.2186 68.9186 61.2186 68.5328C61.2186 68.1469 61.3719 67.7769 61.6447 67.5041C61.9176 67.2312 62.2876 67.078 62.6735 67.078C63.0593 67.078 63.4293 67.2312 63.7022 67.5041L69.8745 73.6763C70.1473 73.9491 70.3006 74.3192 70.3006 74.705C70.3006 75.0909 70.1474 75.4609 69.8745 75.7338C69.6017 76.0066 69.2317 76.1599 68.8458 76.1599C68.46 76.1599 68.0899 76.0066 67.8171 75.7338L65.7597 73.6763L62.6735 76.7625C62.5384 76.8976 62.378 77.0048 62.2015 77.0779C62.025 77.151 61.8358 77.1886 61.6447 77.1886C61.4537 77.1886 61.2645 77.151 61.088 77.0779C60.9115 77.0048 60.7511 76.8976 60.616 76.7625ZM80.1403 56.1882H77.5104C77.2319 56.1882 76.9649 56.2989 76.768 56.4958L66.2158 67.0479L70.3305 71.163L80.8832 60.6103C81.0799 60.4134 81.1903 60.1464 81.1903 59.8681V57.2383C81.1903 56.9598 81.0797 56.6927 80.8828 56.4958C80.6859 56.2989 80.4188 56.1882 80.1403 56.1882ZM77.6781 71.6189L79.7355 69.5615C80.0083 69.2887 80.1616 68.9186 80.1616 68.5328C80.1616 68.1469 80.0083 67.7769 79.7355 67.5041C79.4627 67.2312 79.0927 67.078 78.7068 67.078C78.321 67.078 77.9509 67.2312 77.6781 67.5041L71.5058 73.6763C71.3707 73.8114 71.2635 73.9718 71.1904 74.1483C71.1173 74.3248 71.0797 74.514 71.0796 74.705C71.0796 75.0909 71.2329 75.4609 71.5057 75.7338C71.7786 76.0066 72.1486 76.1599 72.5345 76.1599C72.9203 76.1599 73.2904 76.0066 73.5632 75.7338L75.6206 73.6763L78.7068 76.7625C78.9796 77.0353 79.3497 77.1886 79.7355 77.1886C80.1214 77.1886 80.4914 77.0353 80.7642 76.7625C81.0371 76.4897 81.1903 76.1196 81.1903 75.7338C81.1903 75.348 81.0371 74.9779 80.7642 74.7051L77.6781 71.6189ZM63.8698 56.1882H61.24C60.9615 56.1882 60.6944 56.2989 60.4975 56.4958C60.3006 56.6927 60.1899 56.9598 60.1899 57.2383V59.8681C60.1899 60.006 60.2171 60.1426 60.2699 60.27C60.3226 60.3974 60.4 60.5132 60.4975 60.6107L65.0909 65.204L69.2056 61.089L64.6123 56.4958C64.4154 56.2989 64.1483 56.1882 63.8698 56.1882Z" fill="url(#paint2_linear_2283_51766)"/>
</g>
<defs>
<filter id="filter0_d_2283_51766" x="0.242676" y="0.242676" width="140.704" height="140.705" filterUnits="userSpaceOnUse" color-interpolation-filters="sRGB">
<feFlood flood-opacity="0" result="BackgroundImageFix"/>
<feColorMatrix in="SourceAlpha" type="matrix" values="0 0 0 0 0 0 0 0 0 0 0 0 0 0 0 0 0 0 127 0" result="hardAlpha"/>
<feOffset dy="4"/>
<feGaussianBlur stdDeviation="22.5"/>
<feComposite in2="hardAlpha" operator="out"/>
<feColorMatrix type="matrix" values="0 0 0 0 0.941176 0 0 0 0 0.788235 0 0 0 0 0.0941176 0 0 0 0.35 0"/>
<feBlend mode="normal" in2="BackgroundImageFix" result="effect1_dropShadow_2283_51766"/>
<feBlend mode="normal" in="SourceGraphic" in2="effect1_dropShadow_2283_51766" result="shape"/>
</filter>
<linearGradient id="paint0_linear_2283_51766" x1="120.336" y1="35.3748" x2="28.9103" y2="63.7304" gradientUnits="userSpaceOnUse">
<stop stop-color="#1A0E33"/>
<stop offset="1" stop-color="#423C7A"/>
</linearGradient>
<radialGradient id="paint1_angular_2283_51766" cx="0" cy="0" r="1" gradientUnits="userSpaceOnUse" gradientTransform="translate(89.4002 58.8054) rotate(90) scale(18.8054)">
<stop offset="0.200283" stop-color="#B17818"/>
<stop offset="0.388618" stop-color="#9C630F" stop-opacity="0.611382"/>
<stop offset="0.501457" stop-color="#7E500C" stop-opacity="0.492874"/>
<stop offset="0.598076" stop-color="#66410A" stop-opacity="0.61"/>
<stop offset="0.801037" stop-color="#B17818"/>
<stop offset="0.998937" stop-color="#FFDC18"/>
<stop offset="0.999175" stop-color="#FFDC18"/>
</radialGradient>
<linearGradient id="paint2_linear_2283_51766" x1="67.5403" y1="76.9415" x2="94.2235" y2="56.9284" gradientUnits="userSpaceOnUse">
<stop offset="0.300349" stop-color="#FF9900"/>
<stop offset="0.428424" stop-color="#F9AC39"/>
</linearGradient>
</defs>
</svg>
