<svg width="11" height="12" viewBox="0 0 11 12" fill="none" xmlns="http://www.w3.org/2000/svg">
<path d="M9.75405 4.22352C9.95052 4.22352 10.1352 4.15 10.2741 4.01646C10.413 3.88289 10.4895 3.70537 10.4895 3.51649C10.4895 3.32762 10.413 3.1501 10.2741 3.01655L9.54605 2.31663C9.40714 2.18306 9.22248 2.10954 9.02602 2.10954C8.82955 2.10954 8.64489 2.18306 8.50598 2.31663C8.2423 2.57008 8.22128 2.96963 8.44247 3.24663L8.26928 3.40266C7.6505 2.92729 6.90921 2.59346 6.09878 2.45312V2.09732C6.68146 2.07633 7.14883 1.61435 7.14883 1.04916C7.14883 0.47065 6.65926 0 6.05749 0H4.40796C3.80619 0 3.31662 0.47065 3.31662 1.04916C3.31662 1.61435 3.78398 2.07633 4.36666 2.09732V2.45312C3.54913 2.59471 2.80201 2.93318 2.17999 3.41518L2.03092 3.26629C2.2692 2.98884 2.25346 2.57616 1.98355 2.31663C1.84464 2.18306 1.65993 2.10954 1.46349 2.10954C1.26704 2.10954 1.08236 2.18306 0.943446 2.31663L0.215415 3.01655C0.0765027 3.1501 0 3.32762 0 3.51649C0 3.70537 0.0765027 3.88289 0.215415 4.01643C0.354327 4.15 0.539042 4.22352 0.735483 4.22352C0.901686 4.22352 1.0594 4.17069 1.18817 4.0736L1.35062 4.23588C0.729476 5.02214 0.360247 6.00193 0.360247 7.06316C0.360247 9.64599 2.54605 11.7473 5.23274 11.7473C7.91943 11.7473 10.1052 9.64599 10.1052 7.06316C10.1052 5.99454 9.73077 5.00854 9.10177 4.2195L9.28114 4.05788C9.41347 4.16505 9.57903 4.22352 9.75405 4.22352ZM9.2388 7.06314C9.2388 9.1867 7.44167 10.9144 5.23274 10.9144C3.02378 10.9144 1.22664 9.1867 1.22664 7.06314C1.22664 4.93955 3.02378 3.21187 5.23274 3.21187C7.4417 3.2119 9.2388 4.93955 9.2388 7.06314Z" fill="white"/>
<path d="M9.75405 4.22352C9.95052 4.22352 10.1352 4.15 10.2741 4.01646C10.413 3.88289 10.4895 3.70537 10.4895 3.51649C10.4895 3.32762 10.413 3.1501 10.2741 3.01655L9.54605 2.31663C9.40714 2.18306 9.22248 2.10954 9.02602 2.10954C8.82955 2.10954 8.64489 2.18306 8.50598 2.31663C8.2423 2.57008 8.22128 2.96963 8.44247 3.24663L8.26928 3.40266C7.6505 2.92729 6.90921 2.59346 6.09878 2.45312V2.09732C6.68146 2.07633 7.14883 1.61435 7.14883 1.04916C7.14883 0.47065 6.65926 0 6.05749 0H4.40796C3.80619 0 3.31662 0.47065 3.31662 1.04916C3.31662 1.61435 3.78398 2.07633 4.36666 2.09732V2.45312C3.54913 2.59471 2.80201 2.93318 2.17999 3.41518L2.03092 3.26629C2.2692 2.98884 2.25346 2.57616 1.98355 2.31663C1.84464 2.18306 1.65993 2.10954 1.46349 2.10954C1.26704 2.10954 1.08236 2.18306 0.943446 2.31663L0.215415 3.01655C0.0765027 3.1501 0 3.32762 0 3.51649C0 3.70537 0.0765027 3.88289 0.215415 4.01643C0.354327 4.15 0.539042 4.22352 0.735483 4.22352C0.901686 4.22352 1.0594 4.17069 1.18817 4.0736L1.35062 4.23588C0.729476 5.02214 0.360247 6.00193 0.360247 7.06316C0.360247 9.64599 2.54605 11.7473 5.23274 11.7473C7.91943 11.7473 10.1052 9.64599 10.1052 7.06316C10.1052 5.99454 9.73077 5.00854 9.10177 4.2195L9.28114 4.05788C9.41347 4.16505 9.57903 4.22352 9.75405 4.22352ZM9.2388 7.06314C9.2388 9.1867 7.44167 10.9144 5.23274 10.9144C3.02378 10.9144 1.22664 9.1867 1.22664 7.06314C1.22664 4.93955 3.02378 3.21187 5.23274 3.21187C7.4417 3.2119 9.2388 4.93955 9.2388 7.06314Z" fill="#FCA31E"/>
<path d="M5.23272 4.09344C3.52942 4.09344 2.14368 5.42563 2.14368 7.0631C2.14368 8.70058 3.52942 10.0327 5.23272 10.0327C6.93603 10.0327 8.32174 8.70058 8.32174 7.0631C8.32174 5.42563 6.93603 4.09344 5.23272 4.09344ZM6.87405 6.23483L5.85396 7.09367C5.84642 7.23655 5.78658 7.37733 5.67308 7.48645C5.42988 7.72024 5.03556 7.72024 4.79236 7.48645C4.54916 7.25262 4.54916 6.87356 4.79236 6.63976C4.92691 6.51041 5.10767 6.45294 5.28355 6.46674L6.30321 5.60826C6.48322 5.45675 6.75686 5.47413 6.91451 5.64716C7.07214 5.82021 7.054 6.0833 6.87405 6.23483Z" fill="white"/>
<path d="M5.23272 4.09344C3.52942 4.09344 2.14368 5.42563 2.14368 7.0631C2.14368 8.70058 3.52942 10.0327 5.23272 10.0327C6.93603 10.0327 8.32174 8.70058 8.32174 7.0631C8.32174 5.42563 6.93603 4.09344 5.23272 4.09344ZM6.87405 6.23483L5.85396 7.09367C5.84642 7.23655 5.78658 7.37733 5.67308 7.48645C5.42988 7.72024 5.03556 7.72024 4.79236 7.48645C4.54916 7.25262 4.54916 6.87356 4.79236 6.63976C4.92691 6.51041 5.10767 6.45294 5.28355 6.46674L6.30321 5.60826C6.48322 5.45675 6.75686 5.47413 6.91451 5.64716C7.07214 5.82021 7.054 6.0833 6.87405 6.23483Z" fill="#FCA31E"/>
</svg>
