<svg width="14" height="11" viewBox="0 0 14 11" fill="none" xmlns="http://www.w3.org/2000/svg">
<g id="Group 1141">
<g id="Layer 24">
<path id="Vector" d="M14 3.79821C14.0003 3.85963 13.9886 3.92051 13.9654 3.97737C13.9421 4.03423 13.9079 4.08594 13.8647 4.12955L11.0647 6.92954C11.0211 6.9728 10.9693 7.00701 10.9125 7.03024C10.8556 7.05346 10.7947 7.06523 10.7333 7.06488C10.6727 7.06562 10.6124 7.05453 10.556 7.03221C10.47 6.9969 10.3966 6.93673 10.345 6.85941C10.2935 6.78209 10.2662 6.69114 10.2667 6.59821V5.19821H6.06667C5.9429 5.19821 5.8242 5.14905 5.73669 5.06153C5.64917 4.97401 5.6 4.85531 5.6 4.73155V2.86488C5.6 2.74111 5.64917 2.62242 5.73669 2.5349C5.8242 2.44738 5.9429 2.39822 6.06667 2.39822H10.2667V0.998218C10.267 0.905924 10.2948 0.815818 10.3464 0.739292C10.398 0.662766 10.4711 0.603259 10.5565 0.568293C10.6419 0.533328 10.7358 0.524476 10.8263 0.542856C10.9167 0.561235 10.9997 0.606022 11.0647 0.671552L13.8647 3.47155C13.9509 3.55847 13.9995 3.67579 14 3.79821ZM7.93333 6.13155H3.73334V4.73155C3.73288 4.63942 3.70516 4.54948 3.65367 4.47308C3.60218 4.39668 3.52923 4.33722 3.444 4.30221C3.35902 4.26648 3.26535 4.25671 3.17482 4.27415C3.0843 4.2916 3.00096 4.33546 2.93534 4.40021L0.135341 7.20021C0.0920897 7.24382 0.0578713 7.29553 0.0346478 7.35239C0.0114244 7.40924 -0.000347283 7.47013 7.79999e-06 7.53154C-0.000347283 7.59296 0.0114244 7.65384 0.0346478 7.7107C0.0578713 7.76756 0.0920897 7.81927 0.135341 7.86288L2.93534 10.6629C2.97894 10.7061 3.03066 10.7403 3.08751 10.7636C3.14437 10.7868 3.20525 10.7986 3.26667 10.7982C3.32789 10.7998 3.38862 10.787 3.444 10.7609C3.52923 10.7259 3.60218 10.6664 3.65367 10.59C3.70516 10.5136 3.73288 10.4237 3.73334 10.3315V8.93154H7.93333C8.0571 8.93154 8.1758 8.88238 8.26332 8.79486C8.35083 8.70734 8.4 8.58864 8.4 8.46488V6.59821C8.4 6.47444 8.35083 6.35575 8.26332 6.26823C8.1758 6.18071 8.0571 6.13155 7.93333 6.13155Z" fill="#ADA3EF"/>
</g>
</g>
</svg>
