<svg width="12" height="14" viewBox="0 0 12 14" fill="none" xmlns="http://www.w3.org/2000/svg">
<path fill-rule="evenodd" clip-rule="evenodd" d="M4.00947 0C3.67967 0 3.41231 0.273111 3.41231 0.610004V1.83001H0.597155C0.267358 1.83001 0 2.10312 0 2.44001C0 2.77691 0.267358 3.05002 0.597155 3.05002H11.4028C11.7326 3.05002 11.9999 2.77691 11.9999 2.44001C11.9999 2.10312 11.7326 1.83001 11.4028 1.83001H8.64454V0.610004C8.64454 0.273111 8.37719 0 8.04738 0H4.00947ZM4.60662 1.74287V1.22001H7.45023V1.74287H4.60662Z" fill="#8077B4" fill-opacity="0.75"/>
<path fill-rule="evenodd" clip-rule="evenodd" d="M10.7488 4.27002H1.19434V11.0817C1.19434 12.3912 2.1796 13.4201 3.46352 13.4201H8.47963C9.76357 13.4201 10.7488 12.3912 10.7488 11.0817V4.27002ZM5.17539 6.41931C5.17539 6.08246 4.90799 5.8093 4.57821 5.8093C4.24841 5.8093 3.98106 6.08246 3.98106 6.41931V10.486C3.98106 10.8229 4.24841 11.096 4.57821 11.096C4.90799 11.096 5.17539 10.8229 5.17539 10.486V6.41931ZM8.01898 6.41931C8.01898 6.08246 7.75164 5.8093 7.42183 5.8093C7.09202 5.8093 6.82467 6.08246 6.82467 6.41931V10.486C6.82467 10.8229 7.09202 11.096 7.42183 11.096C7.75164 11.096 8.01898 10.8229 8.01898 10.486V6.41931Z" fill="#8077B4" fill-opacity="0.75"/>
</svg>
