<svg width="11" height="13" viewBox="0 0 11 13" fill="none" xmlns="http://www.w3.org/2000/svg">
<g id="Group 209">
<g id="Group">
<g id="Group_2">
<path id="Vector" d="M5.45487 0C3.65011 0 2.18182 1.46829 2.18182 3.27305C2.18182 5.07781 3.65011 6.5461 5.45487 6.5461C7.25963 6.5461 8.72792 5.07781 8.72792 3.27305C8.72792 1.46829 7.25963 0 5.45487 0Z" fill="#ADA3EF"/>
</g>
</g>
<g id="Group_3">
<g id="Group_4">
<path id="Vector_2" d="M9.52739 8.68436C8.6313 7.77451 7.44338 7.27344 6.18243 7.27344H4.72774C3.46681 7.27344 2.27887 7.77451 1.38278 8.68436C0.491079 9.58976 0 10.7849 0 12.0497C0 12.2505 0.162828 12.4133 0.363672 12.4133H10.5465C10.7473 12.4133 10.9102 12.2505 10.9102 12.0497C10.9102 10.7849 10.4191 9.58976 9.52739 8.68436Z" fill="#ADA3EF"/>
</g>
</g>
</g>
</svg>
