<svg width="17" height="16" viewBox="0 0 17 16" fill="none" xmlns="http://www.w3.org/2000/svg">
<path d="M13.832 12.7341C12.0965 12.7341 10.6841 11.3217 10.6841 9.58618C10.6841 7.85065 12.0965 6.43829 13.832 6.43829H15.5809V5.03923C15.5809 4.26765 14.9534 3.64017 14.1818 3.64017H13.4823V2.2411C13.4823 1.46952 12.8548 0.842041 12.0832 0.842041H2.28976C1.25235 0.842041 0.394726 1.60033 0.226838 2.59017C0.211449 2.64753 0.191162 2.70349 0.191162 2.76575V13.4336C0.191162 14.5906 1.13273 15.5322 2.28976 15.5322H14.1818C14.9534 15.5322 15.5809 14.9047 15.5809 14.1331V12.7341H13.832ZM1.59022 2.94063C1.59022 2.55519 1.90362 2.2411 2.28976 2.2411H12.0832V3.64017H2.28976C1.90362 3.64017 1.59022 3.32608 1.59022 2.94063Z" fill="white"/>
<path d="M16.4552 7.48779H13.832C12.675 7.48779 11.7334 8.42936 11.7334 9.58639C11.7334 10.7434 12.675 11.685 13.832 11.685H16.4552C16.7448 11.685 16.9799 11.4499 16.9799 11.1603V8.01244C16.9799 7.72284 16.7448 7.48779 16.4552 7.48779ZM13.832 10.2859C13.4459 10.2859 13.1325 9.97253 13.1325 9.58639C13.1325 9.20025 13.4459 8.88686 13.832 8.88686C14.2181 8.88686 14.5315 9.20025 14.5315 9.58639C14.5315 9.97253 14.2181 10.2859 13.832 10.2859Z" fill="white"/>
</svg>
